<svg enable-background="new 0 0 1600 1200" viewBox="0 0 1600 1200" xmlns="http://www.w3.org/2000/svg"><path d="m0 0h1600v1200h-1600z" fill="#fff"/><path d="m1333.4 870.4c0 4.7-.2 9.4-.7 14-1.1 11.1-3.4 21.9-6.8 32.2h-276c-3.4-10.3-5.8-21-6.8-32.2-.5-4.6-.7-9.3-.7-14 0-80.3 65.1-145.5 145.5-145.5 80.4.1 145.5 65.2 145.5 145.5z" fill="#bcebf5"/><path d="m1072.8 600c0 108.2-38.7 207.4-103.1 284.4-9.4 11.2-19.3 22-29.7 32.2h-622c-10.4-10.2-20.3-21-29.7-32.2-64.3-77-103-176.2-103-284.4 0-245.1 198.7-443.8 443.8-443.8 245 0 443.7 198.7 443.7 443.8z" fill="#bcebf5"/><circle cx="1200.2" cy="592.6" fill="#bcebf5" r="89.6"/><circle cx="1357.2" cy="691" fill="#bcebf5" r="57.5"/><g fill="#fff"><circle cx="846.5" cy="377.2" r="17.6"/><circle cx="903.3" cy="377.2" r="17.6"/><circle cx="959.9" cy="377.2" r="17.6"/><circle cx="1016.1" cy="377.2" r="17.6"/><circle cx="1073.9" cy="377.2" r="17.6"/><circle cx="846.2" cy="433.9" r="17.6"/><circle cx="903" cy="433.9" r="17.6"/><circle cx="959.6" cy="433.9" r="17.6"/><circle cx="1015.8" cy="433.9" r="17.6"/><circle cx="1073.6" cy="433.9" r="17.6"/><circle cx="846.2" cy="490.1" r="17.6"/><circle cx="903" cy="490.1" r="17.6"/><circle cx="959.6" cy="490.1" r="17.6"/><circle cx="1015.8" cy="490.1" r="17.6"/><circle cx="1073.6" cy="490.1" r="17.6"/><circle cx="352.1" cy="267.2" r="17.6"/><circle cx="352.1" cy="324" r="17.6"/><circle cx="352.1" cy="380.6" r="17.6"/><circle cx="352.1" cy="436.9" r="17.6"/><circle cx="352.1" cy="494.7" r="17.6"/><circle cx="295.5" cy="266.9" r="17.6"/><circle cx="295.5" cy="323.7" r="17.6"/><circle cx="295.5" cy="380.3" r="17.6"/><circle cx="295.5" cy="436.6" r="17.6"/><circle cx="295.5" cy="494.4" r="17.6"/><circle cx="239.2" cy="266.9" r="17.6"/><circle cx="239.2" cy="323.7" r="17.6"/><circle cx="239.2" cy="380.3" r="17.6"/><circle cx="239.2" cy="436.6" r="17.6"/><circle cx="239.2" cy="494.4" r="17.6"/></g><path d="m1112.1 321h-220.9c10-43.3 44.8-77.1 88.7-85.6 1.4-.3 2.8-.5 4.2-.7 5.7-.9 11.6-1.3 17.5-1.3 53.8 0 98.8 37.4 110.5 87.6z" fill="#ff7d26"/><path d="m1000.5 118.5h2.3v114.9h-2.3z" fill="#1a1a1a"/><path d="m1068.6 321h-177.4c10-43.3 44.8-77.1 88.7-85.6 43.8 8.6 78.7 42.4 88.7 85.6z" fill="#ffe278"/><path d="m1091.1 326.4h-223.7l.3-1.4c5.7-24.8 19.9-47.3 39.8-63.3 20.2-16.3 45.7-25.3 71.7-25.3s51.5 9 71.7 25.3c19.9 16 34.1 38.5 39.8 63.3zm-220.8-2.3h218c-12.3-50.4-56.9-85.4-109-85.4-52.1.1-96.7 35.1-109 85.4z" fill="#1a1a1a"/><path d="m1442 406.6h-220.9c10-43.3 44.8-77.1 88.7-85.6 1.4-.3 2.8-.5 4.2-.7 5.7-.9 11.6-1.3 17.5-1.3 53.9-.1 98.9 37.4 110.5 87.6z" fill="#ff7d26"/><path d="m1330.5 204.1h2.3v114.9h-2.3z" fill="#1a1a1a"/><path d="m1398.6 406.6h-177.4c10-43.3 44.8-77.1 88.7-85.6 43.8 8.5 78.6 42.3 88.7 85.6z" fill="#ffe278"/><path d="m1421.1 412h-223.8l.3-1.4c5.7-24.8 19.9-47.3 39.8-63.3 20.2-16.3 45.7-25.3 71.7-25.3s51.5 9 71.7 25.3c19.9 16 34.1 38.5 39.8 63.3zm-220.8-2.3h218c-12.3-50.4-56.9-85.4-109-85.4s-96.7 35.1-109 85.4z" fill="#1a1a1a"/><ellipse cx="406.8" cy="697.8" fill="#1f2224" rx="7.5" ry="17.2" transform="matrix(.9821 .1883 -.1883 .9821 138.6329 -64.1055)"/><ellipse cx="378.7" cy="689.6" fill="#1f2224" rx="7.5" ry="17.2" transform="matrix(.9821 .1883 -.1883 .9821 136.5816 -58.9564)"/><path d="m408 717.4c-.2 0-.5 0-.7-.1-4.4-.8-6.3-9.1-4.5-18.8.9-4.6 2.5-8.7 4.5-11.7 2.1-3.1 4.4-4.5 6.6-4.1 2.1.4 3.8 2.6 4.6 6.3.8 3.5.7 8-.1 12.5-1.8 9.2-6.2 15.9-10.4 15.9zm5.2-33.8c-1.6 0-3.5 1.3-5.2 3.8-2 2.9-3.5 6.9-4.4 11.4-1.7 8.9 0 17.1 3.8 17.8s8.4-6.2 10.1-15.1c.9-4.4.9-8.8.1-12.2-.7-3.3-2.1-5.3-3.9-5.6-.1-.1-.3-.1-.5-.1z" fill="#1f2224"/><path d="m379.4 709.1c-.2 0-.5 0-.7-.1-2.1-.4-3.8-2.6-4.6-6.3-.8-3.5-.7-8 .1-12.5 1.9-9.7 6.7-16.6 11.1-15.8s6.3 9.1 4.5 18.8c-.9 4.6-2.5 8.7-4.5 11.7-1.9 2.7-3.9 4.2-5.9 4.2zm5.2-33.8c-3.7 0-7.9 6.7-9.5 15.2-.9 4.4-.9 8.8-.1 12.2.7 3.3 2.1 5.3 3.9 5.6s3.8-1 5.7-3.8c2-2.9 3.5-6.9 4.4-11.4 1.7-8.9 0-17.1-3.8-17.8-.2 0-.4 0-.6 0z" fill="#1f2224"/><path d="m1322.8 884.4h-40.7l-.1-.3c-1.2-3.3-30-79.9-18.9-90.5 10.4-9.9 22.2-27.6 23.3-29.3v-18.7c-2.7-.3-4.8-2.5-4.8-5.3 0-2.9 2.4-5.3 5.3-5.3h31c2.9 0 5.3 2.4 5.3 5.3 0 2.8-2.1 5.1-4.8 5.3v18.7c1.1 1.7 13 19.4 23.3 29.3 11.1 10.6-17.6 87.3-18.9 90.5zm-40-1h39.3c2.1-5.5 29.3-79.3 19-89.1-10.9-10.4-23.4-29.4-23.6-29.6l-.1-.1v-20h.5c2.4 0 4.3-1.9 4.3-4.3s-1.9-4.3-4.3-4.3h-31c-2.4 0-4.3 1.9-4.3 4.3s1.9 4.3 4.3 4.3h.5v20l-.1.1c-.1.2-12.7 19.2-23.6 29.6-10.2 9.8 17 83.5 19.1 89.1z"/><path d="m1279.7 712.1 10 50.3h15l13.3-50.3z"/><path d="m1334.9 794.4c-11-10.5-23.5-29.5-23.5-29.5v-19.3c2.7 0 4.8-2.2 4.8-4.8s-2.2-4.8-4.8-4.8h-31c-2.7 0-4.8 2.2-4.8 4.8s2.2 4.8 4.8 4.8v19.3s-12.5 19-23.5 29.5 19 90 19 90h20 20s30-79.5 19-90z" fill="#ff6969"/><path d="m1267 804.4h57l-10 62-38.3-1.3z" fill="#ffe379"/><path d="m1308.4 860.1h-.4l-38.8-1.3-8.8-61.7h58.2zm-38.3-2.3 37.5 1.3 9.8-61h-55.8z"/><path d="m1203.5 840.8h30.8v43.5h-30.8z" fill="#fff"/><path d="m1203.5 831.4h30.8v9.4h-30.8z"/><path d="m1234.3 844.7v39.7h-30.8v-25.3c6.2-.6 13.7-2.4 18.1-7.6 4.8-5.7 9.6-6.9 12.7-6.8z" fill="#a3b580"/><path d="m1210.9 847.2h16v28.7h-16z"/><path d="m1128.6 792.5h46v86.3h-46z" fill="#e7eef0" transform="matrix(.8502 .5264 -.5264 .8502 612.3212 -481.0345)"/><path d="m1194.6 747h-15.2l-24.7 39.8 9.4 5.8 23.7-38.3h6.8z"/><path d="m1147.8 881.4-.8-.5 38.7-63.8-27-21.5.7-.8 27.6 22.1-.2.4z"/><path d="m886 770.4c1.8-3.6 5.3-6.1 9.3-6.8 37.4-6.1 42.4-11.8 50.6 4.3 8.6 17 31.2-1.6 35.2 13 3.9 14.6 32.2 56.2-9.7 58.6s-36.1 43.6-60.1 17.5-16.4-48.5-28.8-54.6c-9.1-4.3-1.3-22.5 3.5-32z" fill="#fff"/><ellipse cx="933.4" cy="810.8" fill="#f5bf3e" rx="22" ry="31.7" transform="matrix(.8999 .436 -.436 .8999 446.9142 -325.8517)"/><path d="m917.4 838.5c-2.6 0-5-.5-7.3-1.6-5.4-2.6-9.1-8.1-10.2-15.5-1.1-7.3.3-15.6 4-23.3 7.7-16 23.1-24.5 34.3-19.1s14 22.8 6.2 38.7c-3.7 7.7-9.3 13.9-15.8 17.6-3.7 2.1-7.6 3.2-11.2 3.2zm13.6-60.2c-9.5 0-20.2 7.8-26.2 20.2-3.7 7.5-5 15.6-3.9 22.7s4.6 12.3 9.7 14.8c5.2 2.5 11.4 1.9 17.6-1.5 6.3-3.5 11.7-9.6 15.4-17.2 7.5-15.5 4.9-32.3-5.8-37.5-2.1-1-4.5-1.5-6.8-1.5z" fill="#f5bf3e"/><path d="m917 855.8c-.3 0-.5 0-.8 0-7.1-.3-13.8-4.7-19.8-13.1v-.1l-12.8-29.7c0-.1-2.5-10-10.9-10.9-1.6-.2-3.5-1.5-3.8-7.2-.7-12.3 6.7-36 15-37.8 2.4-.5 6.8-2 11.9-3.7 17.7-5.9 44.5-14.8 48.6-5.3 1 2.4 1.9 4.8 2.8 7.1 3.4 9.3 6.3 17.3 16.1 15.4 7.4-1.4 16.3 3.3 19.9 10.4 2.3 4.5 4.3 13.6-7.7 24.7-4.6 4.3-9.6 10.2-15 16.5-13.2 15.8-28.3 33.7-43.5 33.7zm-19.8-13.6c5.9 8.2 12.1 12.4 19.1 12.7 15 .6 30.3-17.4 43.7-33.3 5.4-6.3 10.4-12.3 15.1-16.6 11.5-10.7 9.6-19.4 7.5-23.6-3.4-6.7-12-11.2-18.9-9.9-10.6 2-13.8-6.7-17.2-16-.8-2.3-1.7-4.7-2.7-7-3.8-8.7-31.2.4-47.5 5.8-5.3 1.8-9.5 3.2-12 3.7-7.8 1.7-14.9 25.2-14.3 36.9.1 2.8.8 6.1 3 6.3 8.7.9 11.5 10.8 11.6 11.5z"/><path d="m160.9 884.4h1278.2v32.2h-1278.2z"/><path d="m618.5 446.2 162.6 70.5 131 20s90.1 91.1-28.2 128.4l-114.7-11.2z" fill="#bec3c4"/><path d="m426.7 428.9-90.2 66s-113.4 220.3-95.7 389.5h625.1s-114.7-409.8-260.9-442.2-178.3-13.3-178.3-13.3z" fill="#fff"/><path d="m533.6 535.8c-160.1 14.6-113.8-161.1-52.8-199.3l83.3 31.1 28.7 10.7.6 1.5 18.5 44.9s11.7 13.8 17.6 31.7c.2.5.4 1.1.5 1.7 8.9 29.5 1.4 68.9-96.4 77.7z" fill="#ffe0c4"/><path d="m630 458.2-52.8-19.1-22.5-67 38.7 7.9 18.5 44.9s11.7 13.8 17.6 31.7c.2.5.3 1.1.5 1.6z" fill="#eda1a1"/><path d="m669.8 577.8c-4.6 1.1-9.6 2.1-15.1 2.9-25.4 3.9-50.8 6.7-75.2 8.3-105.1 6.7-191.3-10.2-175-68.6 20-71.9 16.4-113.8 47.3-109.2 0 0 16.4-7.3 13.6 10.9-2.7 18.2 8.1 64.6 63.2 38.2 11.1-5.3 20.6-9.8 28.9-13.5.2-.1.3-.1.5-.2 32.5-14.2 46.5-15.4 66.3-2.5 23.9 15.5 153.8 107.9 45.5 133.7z" fill="#212121"/><path d="m917.5 542.7s-116.4-24.6-92.1 116.7l67.3 3z"/><path d="m846.5 583.5s-23.5 24.6-9.8 86.5c0 0 27.3 16.7 34.6-16.2 7.2-32.9-24.8-70.3-24.8-70.3z" fill="#eda1a1"/><path d="m386.8 628.9s115.8 19.6 182.3 260.3h-117.1z" fill="#bec3c4"/><path d="m336.5 494.9s-94 32.2-112.5 117.8c-2 9.1-4.2 18.2-6.6 27.2-12.1 44.7-30.8 183.6 207 180.9l27.7-74.2-65.1-117.6c-.2-.1 32.8-121-50.5-134.1z" fill="#fff"/><path d="m341.5 825.9h383.5v27.3h-383.5z"/><path d="m569.1 826h-24.6l19.9 51.2 4.7 12.1c-1.8 50.3-33.7 26.2-33.7 26.2-39.4 25.9-64.8 24.3-81.2 11.3-22.1-17.4-27.9-55.2-29.4-73.6-.5-6.5-.5-10.6-.5-10.6v-21.8l27.7-74.2 55.3 35.9c66.9-5 61.8 43.5 61.8 43.5z" fill="#ffe0c4"/><path d="m542.6 384.4v14.4l-50.9-12.1 4.1-8.8z" fill="#242d36"/><path d="m566.9 389.3v9.5l33.8-8-2.7-5.9z" fill="#212121"/><path d="m451.4 382.8s24.4-31.9 51.7-36c0 0-8.6-43.2-59.6 9.2z" fill="#212121"/><path d="m695.6 302.9s15.6 119.4-90.5 58.2l-11.4 19.5c-3.9.4-8.1.3-12.5-.3-24-2.7-54.5-16.9-76.9-29.1-18.1-9.8-31-18.3-31-18.3 8.8-21 18.4-31.3 25.9-36.5 7.9-5.5 13.6-5 13.6-5s-81-63.2-28.2-91.5c52.8-28.2 119.7-33.7 134 20.9-.1.2 122.5 5.6 77 82.1z" fill="#fff"/><path d="m619.4 884.5-1.8-.1c7.3-89-14.6-156.6-34.2-197.7-21.3-44.4-44.6-68.1-44.8-68.3l-.9-.9 73.1-34.7.8 1.6-70.8 33.6c4.5 4.8 25.2 28.1 44.3 67.9 19.7 41.2 41.7 109.1 34.3 198.6z"/><path d="m454.9 741.4-62-112.2v-.2c-2.5-92.1-24.2-126.4-42-139-15.5-10.9-29.5-6.6-29.7-6.6l-.6-1.7c.6-.2 15.1-4.7 31.3 6.8 18.1 12.8 40.2 47.5 42.7 140.2l61.8 111.8z"/><path d="m419.3 830.9c-63.5-.6-112.4-19.9-142.3-36-32.4-17.4-50-34.9-50.2-35.1l1.5-1.5c.2.2 17.6 17.5 49.7 34.8 29.6 15.9 78.2 35 141.2 35.7z"/><ellipse cx="602" cy="661.8" rx="9.3" ry="18.2" transform="matrix(.906 -.4233 .4233 .906 -223.5356 317.0681)"/><ellipse cx="637.5" cy="751.7" rx="9.3" ry="18.2" transform="matrix(.9679 -.2511 .2511 .9679 -168.3663 184.19)"/><ellipse cx="657.6" cy="859" rx="9.3" ry="18.2" transform="matrix(.9909 -.1349 .1349 .9909 -109.8693 96.5676)"/><ellipse cx="673.9" cy="650.4" rx="6.6" ry="18.2" transform="matrix(.9572 -.2893 .2893 .9572 -159.3502 222.8101)"/><ellipse cx="708.1" cy="740.9" rx="6.6" ry="18.2" transform="matrix(.9875 -.1578 .1578 .9875 -108.0318 120.9891)"/><path d="m539.1 398-10.6 14-33.9-14v-10.8z" fill="#f2a5a5"/><path d="m571.2 397.8 2.5 9.8 27-9.9-2.6-6.3z" fill="#dc7676"/><path d="m498.4 397.1h29.1v.9h-29.1z" fill="#1a1a1a" transform="matrix(.9389 .3443 -.3443 .9389 168.2215 -152.268)"/><path d="m585.5 388.9h.9v18.4h-.9z" fill="#1a1a1a" transform="matrix(.3212 .947 -.947 .3212 774.7484 -284.6411)"/><path d="m569.7 416.8s30.7-6.6 7.5 22.3z" fill="#dc7676"/><path d="m569.1 889.3c-1.8 50.3-33.7 26.2-33.7 26.2-39.4 25.9-64.8 24.3-81.2 11.3 23.6-.5 42.6-32.1 42.6-32.1 38.4 13.1 59.1-6 67.7-17.6z" fill="#eda1a1"/><path d="m1017.4 531.3-13.1-12.7c-5.4-5.2-15.6-2.8-22.6 5.3l-250.7 290.2c-6.8 7.9-7.9 18.2-2.5 23 5.2 4.6 14.5 2.5 21.4-4.6l263.8-277.5c7.4-7.7 9-18.5 3.7-23.7zm-33.3 29.3-6.4-6.4 14.7-25.8 14.4 14.1z"/><path d="m909.9 542.7s104.2 34.1 65.1 96.5c-8.6 3.2-3.2 25.5-22.7 33.7-19.6 8.2-29.1 9.1-29.1 9.1s-11.4 47.3-40.5 18.7c-29.1-28.7-47.3-86-36.4-96s-30.1-52 63.6-62z" fill="#ffe0c4"/><path d="m703.2 813.4s-17.6-4.9-15.5-14.6 7.3-18.5 7.3-18.5 7.3-8.8 8.2 7.3 8.4-16.4 11.9-16.7 27.5-11.6 25.1 11.8 16.4-1.5 15.8 15.5-14.3 27.7-14.3 27.7z" fill="#a3b580"/><path d="m741.9 820.6-38.7-12.6c-.9-.2-18-5.1-15.8-15.1 2.1-9.7 7.3-18.5 7.3-18.6.2-.2 2.8-3.3 5.3-2.5 2.2.7 3.4 4 3.7 10 .2 3.8.8 4 .8 4 .9 0 3.2-5.9 4.7-9.8 2.6-6.9 4.4-11.2 6-11.3.5 0 1.5-.3 2.8-.7 5-1.5 14.2-4.2 19.3 0 2.9 2.4 4.1 6.8 3.4 13-.5 5.2-.1 8.3 1.4 9.5 1.4 1.2 3.9.5 6.2-.2 2.4-.7 4.9-1.4 6.5-.1 1.3 1 1.8 3 1.7 6.2-.6 17-14.3 27.9-14.4 28zm-42.8-48c-1.8 0-3.6 2.2-3.7 2.2 0 0-5.1 8.8-7.2 18.3-2 9.2 15 14 15.1 14l38.3 12.4c1.6-1.4 13.3-11.7 13.9-27.2.1-2.9-.3-4.6-1.3-5.4-1.3-1-3.4-.4-5.7.3-2.6.7-5.2 1.5-7 0s-2.3-4.8-1.7-10.3c.6-5.9-.4-10-3.1-12.2-4.8-4-13.7-1.3-18.5.1-1.4.4-2.4.7-3 .8-1.2.1-3.6 6.5-5.2 10.7-2.8 7.4-4.2 10.6-5.7 10.4-.9-.1-1.4-1.6-1.6-4.9-.4-6.8-1.9-8.8-3.1-9.2-.1.1-.3 0-.5 0z"/><path d="m796.7 842.4s-57.3-65.1-19.1-68.7 4.5 26.4 60.1 53.2z" fill="#ff6969"/><path d="m632.8 807.9 74.6 94.6h313.1l52.7-76.6z"/><path d="m811.6 813.1c-.1-.1-9.2-10.7-17.8-27.2-2.1-4.1-4.9-6.5-8.4-7-7.7-1.2-16.1 7-16.2 7.1l-.6-.6c.4-.4 8.8-8.7 17-7.4 3.7.6 6.8 3.1 9.1 7.5 8.5 16.4 17.5 26.9 17.6 27z" fill="#fff"/><ellipse cx="826.6" cy="785.6" fill="#a3b580" rx="5.1" ry="13.8" transform="matrix(-.8595 -.5112 .5112 -.8595 1135.5415 1883.3037)"/><ellipse cx="733.7" cy="738.6" fill="#a3b580" rx="3.6" ry="13.1" transform="matrix(.8495 -.5275 .5275 .8495 -279.239 498.1947)"/><ellipse cx="666.8" cy="777.7" fill="#a3b580" rx="3.6" ry="13.5" transform="matrix(.8276 -.5614 .5614 .8276 -321.5757 508.4631)"/><ellipse cx="695.1" cy="749.9" fill="#a3b580" rx="3.6" ry="13.5" transform="matrix(.9213 .3888 -.3888 .9213 346.2225 -211.2203)"/><path d="m577.4 433.7-.7-.6c5.2-5.7 7.1-10 5.6-12.8-2.6-5-15.3-3.7-15.4-3.7l-.1-.9c.5-.1 13.5-1.4 16.3 4.2 1.7 3.1-.2 7.7-5.7 13.8z" fill="#1a1a1a"/><path d="m1023.2 804.3c.7-1 64.9-73.4 40.6-39.7-24.2 33.7-59.9 68.8-40.6 39.7z" fill="#f5bf3e"/><path d="m1025 807.5c.8-.7 68.6-43.5 40.8-22.1-27.7 21.5-63.6 41.1-40.8 22.1z" fill="#f5bf3e"/><ellipse cx="1019.1" cy="778.9" fill="#f5bf3e" rx="1.4" ry="27.3"/><ellipse cx="1030.5" cy="779.5" fill="#fff" rx="2.4" ry="18.5" transform="matrix(-.9449 -.3274 .3274 -.9449 1749.0138 1853.3688)"/><ellipse cx="1044.7" cy="815.6" fill="#fff" rx="6.6" ry="1.4"/><ellipse cx="1057.4" cy="803.9" fill="#fff" rx=".9" ry="4" transform="matrix(.9357 .3528 -.3528 .9357 351.545 -321.3412)"/><ellipse cx="1004.6" cy="803.9" fill="#fff" rx="1.1" ry="3.6" transform="matrix(.8377 -.5462 .5462 .8377 -275.9868 679.1484)"/><ellipse cx="1004.6" cy="769.2" fill="#fff" rx="1.7" ry="7.2" transform="matrix(.9276 -.3737 .3737 .9276 -214.6493 431.0656)"/><path d="m703.5 877.5-.1-.2-43.4-58.2 381.2 18.9-23.2 35.3h-.2zm-41.6-57.4 42.1 56.5 313.6-4.2 22.1-33.5z" fill="#fff"/><path d="m452 746.5-27.7 93.2v-18.9z" fill="#eda1a1"/><path d="m607.6 675c-4.7 0-10.7-5.3-14.4-13.3-4.4-9.3-3.9-18.8.9-21 4.9-2.3 12.4 3.5 16.7 12.8 4.4 9.3 3.9 18.8-.9 21-.7.3-1.5.5-2.3.5zm-11.1-33.9c-.7 0-1.4.1-2 .4-4.4 2.1-4.6 10.9-.5 19.8s11.1 14.4 15.5 12.3 4.6-10.9.5-19.8c-3.5-7.6-9.1-12.7-13.5-12.7z"/><path d="m680.5 665.5c-1.7 0-3.7-1.4-5.7-4-2.2-3-4.2-7.2-5.6-11.9-3-10-2.4-18.8 1.4-19.9 1.9-.6 4.2.8 6.5 3.9 2.2 3 4.2 7.2 5.6 11.9 3 10 2.4 18.8-1.4 19.9-.2.1-.5.1-.8.1zm-9.1-35.1c-.2 0-.4 0-.6.1-3.2 1-3.5 9.6-.8 18.8 1.4 4.6 3.3 8.7 5.5 11.6 2 2.7 4 4 5.5 3.6 3.2-1 3.5-9.6.8-18.8-1.4-4.6-3.3-8.7-5.5-11.6-1.7-2.4-3.5-3.7-4.9-3.7z"/><path d="m642.5 766.7c-4.9 0-10.4-6.6-12.8-15.8-1.2-4.8-1.5-9.5-.6-13.4s2.8-6.5 5.3-7.2c5.2-1.3 11.5 5.7 14.1 15.6 1.2 4.8 1.5 9.5.6 13.4s-2.8 6.5-5.3 7.2c-.5.2-.9.2-1.3.2zm-6.7-35.5c-.4 0-.8 0-1.1.1-2.2.6-3.9 2.9-4.7 6.5-.8 3.7-.6 8.3.6 12.9 2.5 9.5 8.3 16.2 13 15 2.2-.6 3.9-2.9 4.7-6.5.8-3.7.6-8.3-.6-12.9-2.3-8.7-7.5-15.1-11.9-15.1z"/><path d="m712.6 758c-3.8 0-7.9-7.4-9.5-17.3-.8-4.9-.8-9.5-.1-13.2.7-3.8 2.2-6.1 4.2-6.4s4.1 1.4 5.9 4.8c1.8 3.2 3.2 7.7 4 12.6 1.7 10.3-.1 18.9-4 19.5-.2 0-.3 0-.5 0zm-4.9-36c-.1 0-.2 0-.3 0-1.5.2-2.8 2.3-3.4 5.6-.7 3.5-.6 8.1.1 12.9 1.5 9.5 5.6 17.1 8.9 16.6s4.8-9 3.3-18.5c-.8-4.7-2.1-9.1-3.9-12.3-1.6-2.8-3.3-4.3-4.7-4.3z"/><path d="m663.7 876.2c-2.4 0-4.8-1.6-6.9-4.6-2.2-3.2-3.8-7.7-4.5-12.6s-.3-9.6 1-13.3c1.3-3.8 3.5-6.1 6.2-6.5 2.6-.4 5.4 1.3 7.7 4.6 2.2 3.2 3.8 7.7 4.5 12.6.7 4.9.3 9.6-1 13.3-1.3 3.8-3.5 6.1-6.2 6.5-.4 0-.6 0-.8 0zm-3.6-36.2c-.2 0-.4 0-.6 0-2.3.3-4.2 2.4-5.4 5.9-1.3 3.6-1.6 8.2-.9 12.9.6 4.7 2.2 9.1 4.4 12.2 2.1 3 4.5 4.5 6.8 4.2s4.2-2.4 5.4-5.9c1.3-3.6 1.6-8.2.9-12.9-.6-4.7-2.2-9.1-4.4-12.2-2-2.7-4.1-4.2-6.2-4.2z"/><path d="m669.8 577.8c-4.6 1.1-9.6 2.1-15.1 2.9-25.4 3.9-50.8 6.7-75.2 8.3-105.1 6.7-191.3-10.2-175-68.6 20-71.9 16.4-113.8 47.3-109.2 0 0 16.4-7.3 13.6 10.9-2.7 18.2 8.1 64.6 63.2 38.2 11.1-5.3 20.6-9.8 28.9-13.5.2-.1.3-.1.5-.2 46 15.3 114.1 51.6 111.8 131.2z" fill="#242d36"/><path d="m451.7 411.2s5.5-101.9-35.5-49.1 7.3 92.7 35.5 49.1z" fill="#ffe0c4"/><path d="m443.4 382.8s-9.6-47.3-32.3 2.1 34.6 16.2 34.6 16.2l-25.9-6.8z" fill="#eb8484"/><path d="m512.7 291.5s11.9 13.3 23.5 24.3-7.6 11.7-23.5-24.3z" fill="#e7eef0"/><path d="m552.4 318.5c-12-15.1-12.2 6.8 18.8 26.9-19 9.8-66.1 5.9-67 5.8 22.5 12.2 53 26.4 76.9 29.1 4.4.5 8.6.6 12.5.3l11.4-19.5s-37.2-23.3-52.6-42.6z" fill="#e7eef0"/><path d="m676 305.5c.4-.6 1.3-.4 1.4.3 1.8 11.9 8.5 72.6-49.7 47-64.3-28.3-106-91.7-105.3-100s109.3 122.9 153.6 52.7z" fill="#e7eef0"/><path d="m183.8 916.6v19.3l1222.5 27v-46.3z" fill="#8faab0"/><path d="m183.8 935.9v19.5l1222.5 43.5v-36z" fill="#bcebf5"/><path d="m183.8 955.4v43.5h1222.5z" fill="#ffe278"/><path d="m387.2 957.6h82v1h-82z" transform="matrix(.09612803 .9954 -.9954 .09612803 1340.687 439.7134)"/><path d="m1055.9 957.2h83v1h-83z" transform="matrix(.1265 .992 -.992 .1265 1908.5566 -252.0318)"/><path d="m160.9 1018.3h1278.2v5h-1278.2z"/></svg>