<svg enable-background="new 0 0 2141.8 1204.7" viewBox="0 0 2141.8 1204.7" xmlns="http://www.w3.org/2000/svg"><circle cx="913.3" cy="598.2" fill="#f8e8a0" r="573"/><path d="m2032 554.2c-.2.2-.5.5-.5.7-.8 12-2.6 23.8-4 35.7-1.1 10.2-2.3 20.3-3.5 30.5-.1.8-.2 1.6-.4 2.4-1.3 8-7.6 13-15.6 12.2-6.8-.7-13.7-1.5-20.5-2.4-47.5-5.6-94.9-11.2-142.4-16.8-1-.1-1.9-.1-2.9-.2-1.3-.2-2.1.5-2.6 1.6-.4.9-.8 1.8-1.2 2.6-13.6 30.9-27.2 61.8-40.8 92.7-1.2 2.6-2.2 5.3-2.5 8.2-1.6 12.7 6 24.4 18.4 27.9 7.4 2.1 15 3.3 22.6 4 11.7 1.2 23.3.9 35-.3 8.6-.9 17.1-2.2 25.7-3.2 11.4-1.3 22.9-2.6 34.5-1.6 26.9 2.3 50.1 12.5 67.9 33.4 28.4 33.4 29.1 82.1 1.8 116.4-12.7 15.9-28.9 26.5-48.6 31.6-20.4 5.3-40.3 3.8-59.6-4.5-14-6-26.1-14.8-36.5-26-6.4-7-12-14.6-17.5-22.3-5.4-7.6-10.7-15.2-16.3-22.5-10.5-13.8-22.9-25.9-37.4-35.6-4.8-3.2-9.9-5.1-15.7-4.9-9.5.4-16.8 4.7-21.6 12.9-1 1.6-1.7 3.4-2.5 5.2-28.7 65.3-57.4 130.6-86.1 195.9-2.2 5-4.6 9.8-7.9 14.2-7.1 9.3-16.2 15.8-27.2 19.7-.9.3-1.9.3-2.4 1.3-6.4.7-12.7 1.5-19.1 2.2-.4-.5-1-.6-1.7-.7-7.1-.5-13.8-2.7-20.3-5.5-70.5-31.1-141.1-62.1-211.6-93.1-183.8-80.9-367.7-161.7-551.6-242.5-4-1.7-7.9-3.5-11.6-5.8-14.4-9.3-23.6-22.2-27.6-38.8-1.9-7.9-2.1-15.8-.9-23.8.1-.8.2-1.6.3-2.4.1-.5.1-1.1-.3-1.2s-.8.3-1.2.6c-.3.2-.5.4-.7.6-8.8 8.2-18.7 15-29.5 20.4-.7.4-1.4.7-2.1 1.1-.8.5-1.1 1.2-.7 2 .4 1 .9 2.1 1.4 3.1 7.3 16.1 13.1 32.6 17.2 49.8 2.5 10.4 4.5 20.9 5.7 31.6.2 1.6.3 3.2.6 4.8.5 3.5.5 3.7 4.2 3.6 4.6-.1 9.3.1 13.9.7 5.9.7 11.7 2 17.2 4.1 3.6 1.4 7 3.2 10.1 5.5 7.6 5.6 11.9 13.2 13.3 22.5 1.2 8.2.4 16.3-1.7 24.2-1.1 4.2-2.4 8.3-4 12.3-7.7 19.3-18.9 36.3-33.5 51-11.7 11.7-25.6 19.6-41.6 23.7-2.7.7-4.1 1.9-5.2 4.2-6.8 14-14.8 27.3-24.1 39.7-4.2 5.7-8.5 11.2-13.1 16.5-2 2.4-3 4.6-2.4 7.7 1 5 .9 10.2.4 15.3-1.3 12.5-6.9 22.8-16.4 31-1.8 1.6-3.7 3-5.6 4.5-.4.3-.6.7-.5 1.2.2.6.7.5 1.2.5 6.4-.1 12.8-.2 19.2-.9.5-.1 1-.1 1.4-.2.9-.2 1.4-.7 1.4-1.6-.1-1.3-.3-2.5-.5-3.8-.8-5.6-.8-11.1-.2-16.7 1.1-9.5 4.9-17.8 11.2-25 5-5.7 11-10.2 17.7-13.8.7-.4 1.4-.7 2.2-1 1.2-.4 2.2.1 2.7 1.3.2.4.4.9.5 1.4 1.9 9.3 2.6 18.7.3 28.1-2.3 9.7-7.6 17.5-14.8 24.1-1.7 1.6-3.9 2.7-5.2 4.7 0 .1.1.4.2.4 2.4.5 4.7-.4 7-.7 5.9-.7 11.7-1.9 17.4-3.2 2-.4 2.4-1 1.8-3-1.5-4.6-2.1-9.4-2.5-14.2-1.1-12.5 2.2-23.7 10.1-33.6 4.2-5.3 9.3-9.7 14.9-13.5.8-.5 1.6-1 2.5-1.4s2 0 2.5.8c.4.7.6 1.5.9 2.2 3.1 9.4 4.1 19 2.4 28.9-1.2 7.2-4.3 13.7-8.8 19.5-1.7 2.1-3.6 4.1-5.3 6.1-1.1 1.3-3 1.9-3.2 3.9 1.8.3 3.4-.6 5.1-1.1 6-1.8 11.9-3.9 17.7-5.9 1.7-.6 1.9-1.1 1.5-2.9-.8-3.1-1.7-6.2-2.4-9.3-3.8-16.9.4-31.6 11.9-44.4 2.6-2.8 5.4-5.5 8.4-7.8.8-.6 1.5-1.2 2.4-1.6 1.3-.8 2.5-.5 3.2.8.2.4.5.8.7 1.3 4 9.8 5.9 19.9 4.5 30.5-1 8.1-4.4 15.3-9.3 21.8-.8 1-1.9 1.8-2 3.2 1.6.9 2.7-.5 3.8-1 5.2-2.5 10.3-5.1 15.4-7.7 1.6-.8 1.8-1.3 1-3.1-2.2-4.8-3.9-9.8-5.1-14.9-2.4-10.4-1.4-20.3 3-30 3.4-7.3 8.3-13.7 14.2-19.2.5-.4.9-.9 1.5-1.3 1.5-1.1 2.7-.9 3.7.5.1.1.2.3.3.4 9.1 17.5 11.5 35.1.8 52.9-.7 1.1-1.3 2.2-1.9 3.3-.1.1 0 .3.1.4s.3.2.4.2c.3-.1.6-.2.9-.4 4.6-3.1 9.3-6.2 13.9-9.4 2.1-1.4 2.1-1.7 1.1-3.9-1.7-3.8-3.2-7.7-4.2-11.7-1.3-5-2-10-1.8-15.2.2-7 2.1-13.6 5.3-19.7 3.5-6.6 8-12.3 13.5-17.3.7-.6 1.5-1.3 2.3-1.7.8-.5 1.6-.2 2.2.4.3.3.6.7.9 1.1 5.9 11.3 9 23.2 6.9 36.1-.6 3.6-1.8 7.1-3.3 10.5-.4 1-1.3 1.9-.7 3.1-.5 0-.9.1-.3.6.1.1.4-.3.2-.7.7.1 1.2-.2 1.7-.6 1.7-1.5 3.3-3.1 5-4.5 1.5-1.2 2.1-2.6 2.4-4.5.6-4.3 1.6-8.5 3-12.6 5.2-15.1 15.4-25.2 30.3-30.6 4.2-1.5 8.6-2.4 13-3.3.8-.2 1.6-.2 2.4-.1 1.1.1 1.8.7 1.9 1.8.1.8.1 1.6 0 2.4-1.3 10.2-4.3 19.7-10.4 28-6.2 8.7-14.9 13.9-24.8 17.3-3.3 1.1-6.7 2-10.3 2.4-2.5.3-4.5 1.3-6.3 3.1-2.2 2.3-4.7 4.3-7.1 6.5-.2.2-.3.6-.2.9.1.2.5.4.7.4.8-.1 1.6-.3 2.3-.5 8-2 15.9-1.6 23.7.8 8.7 2.7 16.2 7.5 22.9 13.6 2.7 2.4 2.6 3.6-.4 5.5-5 3.2-10.4 5.7-16 7.5-11.8 3.7-23.3 3.1-34.6-2.2-5-2.3-9.6-5.2-13.7-8.7-3.5-2.9-3.1-2.6-6.4-.3s-6.6 4.5-9.9 6.8c-.8.5-1.6 1.1-2.3 1.7-.2.2-.3.6-.3.8.1.2.5.4.7.4 2.4 0 4.8-.1 7.2-.1 7.5-.1 14.6 1.9 21.1 5.5 8.1 4.5 14.6 10.8 20 18.3.3.4.5.8.8 1.2.8 1.4.5 2.5-.9 3.2-1.7.8-3.6 1.4-5.4 2-7.2 2.3-14.6 3.4-22.2 2.9-9-.6-17.1-3.8-24.3-9.2-4.3-3.2-8.1-6.8-11.4-10.9-.7-.9-1.4-1.7-2.1-2.6-.6-.7-1.3-.8-2.2-.4-.1.1-.3.1-.4.2-5.6 2.8-11.1 5.6-16.7 8.4-.4.2-.8.5-.7 1 .1.6.7.6 1.1.7 1.9.2 3.8.3 5.7.5 7.3.9 13.9 3.4 19.9 7.7 7.4 5.3 13.2 12 17.7 19.9.2.4.5.8.7 1.3.8 1.8.3 3-1.8 3.6-10.8 3.1-21.7 3.6-32.7.6-5.8-1.6-10.9-4.6-15.6-8.3-4.4-3.5-8.1-7.7-11.4-12.3-.8-1.2-1.6-2.4-2.4-3.6-1.5-2.2-1.7-2.3-4.3-1.4-.9.3-1.8.7-2.7 1-2.1.7-4.3 1.2-6.4 2.2s-4.9.6-6.4 2.8c2.2.6 4.3 1.1 6.5 1.7 8.8 2.2 16.2 6.7 22.3 13.4 5.5 6 9.5 12.9 12.3 20.4.2.4.4.9.5 1.3.4 1.5-.2 2.6-1.6 3-.6.2-1.2.3-1.9.3-8.2.6-16.3.3-24.2-2.1-8.9-2.6-16.2-7.5-22.1-14.6-3.7-4.4-6.7-9.3-9.2-14.6-.5-1-.9-2-1.4-3.1-.4-.9-1-1.2-1.9-1.1-.3 0-.6 0-1 .1-5.8 1.1-11.6 2.2-17.4 3.3-.2 0-.5.4-.6.6 0 .2.1.7.3.8.7.3 1.5.6 2.2.8 12.7 4.2 21.7 12.6 27.6 24.5 2 4 3.5 8.2 4.8 12.5.4 1.2.6 2.5.7 3.8.2 1.8-.6 2.6-2.5 2.7-1.3 0-2.6 0-3.8-.1-6.6-.5-13-1.8-19.1-4.2-9.6-3.8-17-10-22.4-18.8-2.6-4.2-4.7-8.7-6.3-13.4-.5-1.7-1-3.4-1.6-5-.3-.9-.9-1.3-1.8-1.3-.8 0-1.6 0-2.4 0-5.4.4-10.8.9-16.3.8-.5 0-.9.1-1.4.3-.1 0-.2.7-.1.7 1.2.8 2.4 1.5 3.7 2.2 14.9 7.8 22.9 20.4 25.5 36.7.5 3.2.7 6.4 1 9.5.1 1.1.1 2.2-.4 3.3-.3.6-.8 1.1-1.4 1.1-.9 0-1.9-.1-2.8-.3-7.8-2-15.1-5.3-21.6-10-9.9-7.2-15.6-17.2-18.1-29-.9-4.1-1.4-8.2-1.6-12.4-.1-1.9-.4-2.2-2.3-2.3-3.7-.3-7.3-.4-11-.8-6.2-.7-12.4-1.4-18.6-2.2-2.1-.3-4 0-5.9 1.1-9 5.2-18.4 9.7-27.9 13.8-17.7 7.5-36 13.1-55 16.7-15.8 3.1-31.6 4.8-47.7 5-19.6.3-39-1.4-58.2-5.1-1.1-.2-2.2-.4-3.3-.7-1.2-.3-2.2-.1-3.1.6-2.1 1.5-4.2 2.9-6.3 4.4-16.4 11.4-32.8 22.8-49.2 34.3-5.5 3.9-5.4 2.7-8.4-1.7s-6-8.7-8.9-13.1c-2-2.9-1.9-3.5.9-5.4 3.2-2.2 6.4-4.2 9.6-6.3 9.6-6.3 19.2-12.7 28.9-19 .7-.4 1.4-.9 2-1.4.4-.3.9-.7.9-1.1 0-.7-.8-.9-1.3-1.1-.7-.3-1.5-.5-2.3-.8-75.7-27.4-135.2-85.5-164.5-160.6-6.3-16.1-11-32.7-14.1-49.8-1.5-8-2.6-16.1-3.4-24.2-.3-2.6-.9-5-2-7.3-5.9-12.6-10.4-25.8-13.9-39.3-1.2-4.8-2.1-9.7-3.1-14.6-.6-3-1.1-6-2.8-8.6-.5-4.5-1-8.9-1.5-13.4 1.3-2.4 1.1-4.9.9-7.5-1-16 0-32 2.6-47.8 12.5-78.1 66.5-145 140.2-173.9 23-9 46.8-14.2 71.4-15.5 20.5-1.1 40.9.6 61 5.1 5.7 1.3 4.8 1.8 7.5-3.6 8.1-16.3 16.3-32.6 24.4-48.9.6-1.3 1.2-2.6 2-3.8 3.7-5.9 10.7-8.2 17.2-5.6 1 .4 2 .9 3 1.4 14.5 7.2 28.9 14.4 43.4 21.6 1 .5 2 1 3 1.6 5.7 3.6 8 10.4 5.7 16.8-.5 1.3-1.2 2.6-1.8 3.9-6.4 12.9-12.8 25.8-19.3 38.6-.6 1.1-1.1 2.3-1.6 3.5-.3.7.2 1.3.8 1.5 1.1.4 2.2.6 3.2.9 72.9 18.2 129.5 59.3 170.1 122.4.9 1.4 1.3 3.3 3.1 4 1.1-1.2 1.3-2.9 1.8-4.4 7.7-23 21.2-41.8 41.1-55.8.8-.6 1.6-1.1 2.3-1.7.2-.2.2-.6.2-.8-.1-.2-.5-.3-.7-.3-1.4.2-2.8.5-4.3.7-8.4 1.2-16.9 1.7-25.3 1-14.6-1.1-28.2-5.4-41.2-11.8-7.9-3.9-15.4-8.5-22.4-13.9-1.4-1.1-2.8-2.2-4-3.4-1.5-1.4-1.4-2.9.3-3.9 1.1-.7 2.3-1.2 3.4-1.7 11.3-5.1 23.1-8.4 35.4-10.2 22.3-3.4 43.6.1 63.9 9.9.5.3 1 .8 1.4 1.2v-.3l-.2.2c.4-.8.5-1.5-.1-2.2-.8-1-1.6-2-2.4-3-10.2-12.6-17.6-26.7-21.4-42.5-.5-2-.9-4.1-1.2-6.1-.3-1.7-1-2.9-2.5-3.8-1.8-1-3.5-2.2-5.2-3.5-1.9-1.4-1.9-2.6 0-4.3 1.3-1.2 2.7-2.3 4.1-3.3 1.1-.8 1.7-1.8 1.6-3.3 0-.3 0-.6 0-1-.5-6.3.7-5.5-5.6-6.3-8.4-1-16.1-4-23.4-8.2-.5-.3-1.1-.7-1.6-1.1-1-.8-1.1-1.8-.2-2.9.4-.5.8-1 1.3-1.4 7.2-7.1 15.3-12.5 25.1-15.4 8.4-2.6 16.7-2.2 25.1-.1 2.2.5 4.3 1.3 6.4 2 1 .3 1.8.5 2.6-.2-.1.1-.3.1-.3.3-.1.1 0 .2 0 .3.1-.2.2-.4.3-.5-4.8-4.9-9.7-9.7-14.5-14.6-.9-.9-1.9-1.7-2.8-2.6-.9-.8-1.7-.6-2.5.2-1.2 1.3-2.5 2.5-3.8 3.7-5.1 4.7-10.7 8.6-17.2 11.2-7.7 3.2-15.8 3.9-24 2.8-6.5-.9-12.8-2.8-18.7-5.7-.9-.4-1.7-.9-2.5-1.4-.9-.6-1.1-1.6-.5-2.5.3-.5.7-1.1 1.1-1.6 7.4-8.5 16-15.1 26.9-18.4 6.4-2 12.9-2.2 19.4-1.4 2 .2 4 1 6.2.7.4.3.5.1.2 0-.6-.2.2-.2-.3.2.2-.5.1-1-.3-1.3-5.3-4.4-10.9-8.4-16.6-12.3-.9-.6-1.7-.6-2.5.3-.8 1-1.6 2-2.4 3-6.7 7.9-14.6 14.2-24.7 17.6-4.5 1.5-9.1 2-13.7 2.1-7.9.2-15.6-1.4-23-4.2-2.9-1.1-3.3-2.3-1.7-4.7 7.8-11 17.5-19.5 30.8-23.1 4-1.1 8.2-1.5 12.4-1.4 2.2.1 4.5.3 6.7.4.3 0 .6-.2.8-.3-.1-.3-.2-.6-.4-.9-.1-.1-.2-.3-.3-.3-5.2-2.8-10.4-5.7-15.6-8.5-1-.5-1.8-.4-2.5.5-.8 1-1.6 2-2.4 3-3.4 4.1-7.2 7.7-11.5 10.8-9.5 6.9-20 9.7-31.7 8.7-5.6-.5-11.1-1.6-16.4-3.5-1.2-.4-2.4-.9-3.5-1.5-1.2-.6-1.5-1.7-1-2.8.2-.4.5-.8.7-1.2 7-9.7 15.6-17.3 26.9-21.5 3.8-1.4 7.7-2 11.7-2.3 1.3-.1 2.5-.2 3.8-.3.4 0 .6-.3.5-.7 0-.1-.1-.3-.2-.4-3.1-1.6-6.4-2.9-9.8-3.7-1.4-.3-2.8.5-4.2.9-6.5 2-13 3.2-19.8 3.1-9.1-.1-17.3-2.6-24.9-7.6-6.9-4.6-12.6-10.3-17.2-17.2-1.3-2-1-3.2 1.3-4.1 7.4-2.9 15-4.5 22.9-4.5 12.4-.1 23.1 4.5 32.3 12.7 3.6 3.2 6.9 6.7 9.6 10.7 1.2 1.7 2.5 2.8 4.4 3.4 1.5.5 3 1.2 4.5 1.6 2.1.5 3.8 2.3 6.2 1.7-.8-2-2.4-3.3-3.6-5-6.1-8.5-9-17.9-8.8-28.3.1-5.3.7-10.5 2-15.7.3-1.2.7-2.5 1.2-3.6.4-1 1.4-1.3 2.4-1 .8.2 1.5.6 2.2 1 7.5 4.5 14 10.1 19.2 17.2 5.3 7.4 7.8 15.7 8.3 24.7.3 6.1-.3 12.1-1.7 18.1-.6 2.7-.5 2.9 1.9 4.2 5 2.8 10.1 5.6 15.1 8.4 0 0 .3-.2.3-.2l-.3.1c.1-.4.4-1 .2-1.3-.5-1.2-1.2-2.2-1.9-3.3-5.9-10.1-7.8-20.9-5.7-32.4 1.1-6.2 3.1-12.1 5.9-17.7.4-.9.9-1.7 1.5-2.5.6-.9 1.6-1.1 2.5-.5.5.3 1.1.7 1.5 1.1 7.2 6.5 13 14.1 16.5 23.2 3.4 8.8 3.6 17.8 1.7 26.9-1.1 5-2.8 9.8-4.9 14.5-.9 2.1-.9 2.3.9 3.6 5 3.7 10 7.4 15.1 11.1.3.2.8.2 1.3.3 0-.5 0-1-.1-1.4-1.5-3.4-2.9-6.8-3.7-10.4-2.1-8.8-1.4-17.5 1.4-26 1.9-5.7 4.4-11 7.8-15.9 1.6-2.4 2.9-2.5 4.9-.3 6.1 6.7 10.8 14.3 13.6 22.9 3.3 10.2 2.4 20.2-1 30.1-1.6 4.7-3.8 9.1-6.4 13.4-.6.9-.6 1.7.2 2.6 4.1 4 8.3 8 12.4 12 .2.2.6.2.9.2.1 0 .2-.5.2-.8-.5-2-1-4-1.5-6-2.1-8.5-1.4-16.8 1.5-25 2.8-7.8 7.1-14.6 12.6-20.8.5-.6 1.1-1.2 1.7-1.7.8-.6 2-.6 2.6.2.6.7 1.2 1.5 1.7 2.3 4.5 6.9 7.5 14.5 9 22.6 1.4 7.4.8 14.6-1.6 21.8-2.2 6.8-5.7 12.8-10 18.5-.6.8-1.2 1.5-1.8 2.2-1.5 1.9-1.5 1.9-.1 3.7 2.3 2.9 4.5 5.8 6.9 8.6 1.6 1.8 2.3 4.5 5 5.3.5-2.4-.3-4.7-.4-7-.5-8.5 1.1-16.5 5.1-24.1 3.8-7.2 8.9-13.3 15-18.5.6-.5 1.3-1 1.9-1.4.9-.6 2-.4 2.6.4.4.5.8 1 1 1.6 4.7 10.2 7.2 20.8 6 32.1-.7 6.8-3.2 13-6.8 18.8-3.2 5.2-7.2 9.8-11.7 13.9-1.9 1.7-1.8 1.8-.6 4 2.7 4.7 5.4 9.4 8.2 14.1.2.4.4.9.8 1.2.2.2.5.2.8.3.4 0 .6-.2.6-.6.1-2.1.2-4.1.3-6.2.7-11.7 5.1-21.7 13.3-30 3.4-3.4 7-6.6 11.2-9 2.8-1.6 4.4-3.9 5.7-6.8 9.4-21.7 19-43.4 28.5-65 19.4-44.1 38.8-88.1 58.1-132.2.7-1.6 1.4-3.2 2.1-4.9.2-.4.3-1.1 0-1.3-.2-.2-.9-.3-1.3-.1-4.7 1.5-9.4 3-14.1 4.6-26.9 8.8-53.8 17.6-80.7 26.4-26.4 8.7-52.9 17.3-79.3 26-16.9 5.5-33.7 11.1-50.6 16.5-3.5 1.1-7.2 1.7-10.9 1-5.9-1.1-10.1-4.6-13.3-9.4-.8-1.3-.9-3.3-2.9-3.5-1.5-.2-2.8.7-4.1 1.1-2.6.8-5.2 1.7-7.8 2.4-1.8.5-2.9 0-3.4-1.7-3.6-12.5 2.2-22.7 11.9-25.9 8.3-2.8 16.7-5.5 25.1-8.3 28.4-9.3 56.8-18.6 85.2-27.9 7.6-2.5 15.2-5 22.8-7.5.6-.2 1.2-.4 1.8-.6.2-.1.4-.4.6-.6-.2-.1-.5-.4-.7-.4-1.9.1-3.8.3-5.7.5-53.2 6.1-106.5 12.2-159.7 18.3-2.5.3-5.1.5-7.6.3-10.9-1-20-9.9-20.5-21.8-.5-11.8 7.7-21.6 19-23.5 1.4-.2 2.9-.4 4.3-.5 55.6-6.4 111.3-12.8 166.9-19.1 1.6-.2 3.2-.3 4.8-.4.9-.1 1.5.4 1.8 1.3s-.2 1.9-1.3 2.2-2.2.4-3.3.8c-7 2.5-11.6 7.2-13.2 14.6-.8 3.6-.4 4 3.1 3.7 7-.8 14-1.6 21-2.4 3.8-.4 7.6-.9 11.4-1.3 1-.1 1.9-.2 2.9-.3 2.1-.1 2.8.5 3 2.8.1 1.9.1 3.8-.3 5.7-.8 4.2-2.7 7.8-5.5 11-.5.6-1.1 1.1-1.6 1.8-.2.2-.2.6-.3.9.3.1.6.2.8.2 6.2-2 12.5-4 18.7-6.1 31.2-10.2 62.3-20.4 93.5-30.5 4.3-1.4 8.5-2.8 12.8-4.2 1.2-.4 1.9-1.1 2.4-2.2.6-1.5 1.3-2.9 1.9-4.4 9.5-21.5 18.9-43 28.4-64.6 5.5-12.5 14.2-21.9 26.3-28.2 3.8-2 7.9-3.5 12.1-4.6 1.1-.3 2.2-.3 3-1.3 3.2-.4 6.4-.7 9.5-1.1.6.6 1.4.6 2.2.6 8.6.1 16.7 2.3 24.6 5.8 38.5 17 77 33.9 115.5 50.9 2.9 1.3 5.7 1.7 8.8 1.3 50.2-5.9 99.2-.5 146.9 16.6 31.9 11.4 61.1 27.6 87.8 48.5 24.5 19.1 45.8 41.4 63.7 66.7 1.6 2.2 3.5 3.5 5.9 4.6 69.2 30.4 138.5 60.9 207.7 91.3 44.6 19.6 89.3 39.3 133.9 58.9 11.5 5 20.8 12.5 27.2 23.3 9.5 16.2 10.9 33.1 4.2 50.7-.7 1.8-1.5 3.5-2.3 5.3-1.3 2.9-2.3 4 2.3 4.4 6.7.6 13.3 1.6 20 2.3l111.9 13.2c3.6.4 6.9 1.4 9.5 4.1 1.2 1.2 2 2.8 3 4.2.2 2.9.5 6 .9 9.2z" fill="#524e43"/><path d="m835.8 595.6c-.2-.5-.5-.8-.9-.1 0 0 .4.3.7.5.5 1.8 1.9 2.9 3 4.3 6.7 8.5 12.3 17.5 16.3 27.6 8.5 21.6 9.8 43.8 6.3 66.5-.1.9-.4 1.9-.7 2.8-.5 1.4-1.8 2-3.1 1.3-1.4-.8-2.7-1.7-4-2.6-12.9-9.7-23.8-21.3-32.4-35-7-11.2-11.8-23.4-14.1-36.4-.8-4.7-1.7-9.4-1.9-14.3 0-.6.2-1.5-.7-1.5-.7 0-.8.9-1 1.4-.4.9-.7 1.8-1.1 2.7-3.9 10-9 19.5-15.7 27.9-1.4 1.8-2.3 3.8-2.9 6-5.9 19.2-2.9 37 8.8 53.3 6.4 8.9 15.1 15 25.2 19.4 64.4 28.3 128.8 56.6 193.3 85 183.9 80.9 367.7 161.7 551.6 242.6 7.5 3.3 14.9 6.7 22.4 9.8 19.2 7.8 37.3 5.4 53.9-7.1 7.6-5.7 12.7-13.4 16.5-22 28.9-65.8 57.8-131.5 86.7-197.2.8-1.8 1.5-3.6 2.5-5.2 6-10.1 14.8-15.1 26.6-15 6.3 0 11.8 2.3 17 5.8 15.5 10.5 28.6 23.6 39.7 38.6 5.9 8 11.6 16.1 17.3 24.2 4.5 6.2 9.2 12.3 14.4 18 9.3 10.1 20.1 18.2 32.7 23.9 21.2 9.7 42.8 11.1 64.9 3.8 44.6-14.7 70.1-62.4 56.4-108-7.9-26.5-25.1-45.3-50.5-56.2-15.4-6.6-31.6-8.9-48.3-7.8-13.3.8-26.4 3-39.6 4.5-11.3 1.3-22.6 1.7-34 1.1-9.4-.6-18.8-1.9-27.9-4.4-17.5-4.7-26.5-22.9-19.9-39.8.5-1.2 1-2.4 1.5-3.5 13.1-29.9 26.3-59.7 39.4-89.6.5-1 .9-2 1.3-3.1.5-1.4.3-1.8-1-2-1.1-.2-2.2-.3-3.3-.5-8.9-1-17.8-2.1-26.7-3.1-51-6-101.9-12-152.9-18-6.8-.8-13.7-1.6-20.5-2.4-6.2-.8-10.2-4.3-12.2-10.1-.7-2.2-.6-4.4-.3-6.7.3-2.5.1-2.7-2.4-3.1-.9-.2-1.9-.2-2.9-.3-18.7-2.2-37.5-4.5-56.2-6.6-6.3-.7-5-1.8-7.2 4.6-12.3 36.4-30.6 69.6-54.9 99.4-30.6 37.5-67.9 66.6-111.7 87.3-27.5 13-56.3 21.9-86.4 26.5-6.3 1-12 3-17.4 6.4-4.9 3.1-9.5 6.5-13.9 10.3-6 5.1-11.9 10.2-17.8 15.3-5.1 4.4-10.3 8.6-15.8 12.4-4.6 3.2-9.5 6-14.8 7.9-9.3 3.3-17.9 2.3-25.9-3.6-1.5-1.1-3-2.3-4.5-3.6-3.2-2.9-6.1-6.1-8.9-9.4-4.5-5.4-8.5-11.2-12.5-17-3.8-5.5-7.7-11-11.6-16.4-3.2-4.4-6.7-8.6-10.6-12.4-3.6-3.5-7.6-6.2-12.4-8-10.6-4-20.9-8.8-31-14.1-51.4-27.1-92.5-65.3-123.3-114.6-20.6-32.9-34.5-68.5-42.1-106.5-4.2-21.2-6.1-42.7-5.9-64.4s2.4-43.1 7.1-64.2c17.9-80.6 60.4-145.1 127.4-193.3 38.3-27.6 81.1-45.2 127.5-53.9 1.5-.3 3.2-.1 4.5-1.1-.6-2.1-2.7-2-4.2-2.6-29.1-12.9-58.2-25.7-87.4-38.5-7.8-3.4-15.5-6.9-23.3-10.2-22.6-9.5-48.5-2.5-63.2 17.1-2.8 3.7-4.9 7.8-6.8 12.1-8.9 20.4-17.9 40.7-26.8 61.1-.5 1-.9 2.1-1.3 3.1-.2.6.3 1.3 1 1.2 1.1-.2 2.2-.5 3.2-.8 5-1.6 10-3.3 15-5 4.2-1.4 8.5-1.7 12.8-1.1 10.3 1.5 17.8 9.8 18.5 20.3.7 10.2-6.1 19.5-16.1 22.2-1.1.3-2.2.5-3.2.8-17.6 5.8-35.2 11.5-52.9 17.3-2 .6-3.4 1.6-4 3.7-.2.6-.5 1.2-.8 1.8-33.4 75.6-66.9 151.9-100.5 228.1-.2.4-.4.9-.5 1.3-.3 1.2-1.8 2.4-.7 3.4.8.7 1.9-.8 2.8-1.4 3.1-1.9 6.2-4 9.4-5.8 6.8-3.9 13.8-7.4 21.3-9.8 4-1.3 5-.5 4.6 3.6-.7 7.2-2.1 14.2-4 21.2-7.2 26.4-21.2 48.1-43.9 63.9-.4.3-.8.5-1.2.8-.4.4-1.3.6-.9 1.4.1.2.8.2 1.3.2 1.7-.2 3.5-.5 5.2-.7 10.7-1.5 21.3-1.6 32 .2 21.5 3.6 40.4 12.9 57.4 26.3.9.7 1.7 1.4 2.5 2.3 1 1.1.8 2.6-.4 3.3-1.7 1-3.4 1.8-5.1 2.6-8.8 3.8-18 6.5-27.4 8.5-11.1 2.3-22.2 2.9-33.4 1.8-11.7-1.1-22.9-4.4-33.7-9-1.5-.7-2.8-1.7-4.5-1.7z" fill="#ffebc2"/><path d="m1886 482.5c-1.5-11.5-6.8-22.1-15.9-30.9-4.9-4.7-10.6-8.1-16.8-10.9-111.1-48.8-222.2-97.7-333.2-146.5-1-.5-2-.9-3.1-1.3-.5-.2-1.2-.7-1.7 0-.4.6.2 1.2.5 1.7.2.3.3.5.5.8 22.9 35.9 38.1 74.8 45.5 116.7 4.2 23.6 5.5 47.3 4.3 71.2-.2 4.9-.7 9.9-1 14.8-.1 1.6.2 1.9 1.8 2.2.9.2 1.9.3 2.8.4l38.1 4.5c5.2.6 10.5 1.3 15.7 1.8 2.6.3 2.8.1 3.3-2.2.1-.6.2-1.3.3-1.9 1.7-6.9 7.9-11.3 15-10.8 1.6.1 3.2.4 4.8.6 22.7 2.7 45.4 5.3 68.1 8 46.7 5.5 93.3 11 140 16.5 7 .8 14 1.7 20.9 2.5 2.2.2 2.5.1 3.3-1.9 1.4-3.2 2.9-6.4 4.1-9.7 3-8 3.9-16.2 2.7-25.6z" fill="#ffebc2"/><path d="m2010.3 631.9c4.6-.5 8.2-3.7 9.2-7.9.4-1.6.5-3.2.6-4.7 1.9-16 3.8-32.1 5.7-48.1.8-6.7 1.6-13.3 2.2-20 .5-5.2-2.7-9.3-7.8-10.6-.9-.2-1.9-.3-2.8-.4-25.4-3-50.8-6-76.2-9-45.1-5.3-90.2-10.6-135.2-15.9-45.1-5.3-90.2-10.6-135.2-15.9-9.4-1.1-18.7-2.2-28.1-3.2-6.5-.7-10.7 2.6-11.8 9-.2.9-.2 1.9-.4 2.9-1.4 11.7-2.8 23.5-4.2 35.2-1.3 11-2.6 21.9-3.8 32.9-.6 5.6 2.8 10.1 8.3 11.1 1.6.3 3.2.4 4.8.6 10.6 1.2 21.3 2.5 31.9 3.7 46.4 5.4 92.7 10.9 139.1 16.3 49.2 5.8 98.4 11.6 147.6 17.3 17.1 2 34.3 4.1 51.4 6.1 1.6.4 3.4.5 4.7.6z" fill="#896451"/><path d="m1561.6 438.3c-3.1-25.5-6.7-43.7-12.1-61.5-9.3-30.7-22.7-59.4-40.8-85.9-43.8-63.8-102.9-106.5-177.4-127.5-32.9-9.3-66.5-12.7-100.7-10.9-14.9.8-29.6 2.6-44.2 5.6-17.1 3.4-33.9 8.1-50.2 14.4-56.2 21.5-102.9 56-139.2 104-49.7 65.8-70.1 140.3-62.9 222.2 2.2 25.3 8.1 49.8 16.6 73.8 28.7 81.2 92.2 152.2 180 187.2 7.7 3.1 14 7.6 19.3 13.7 3.9 4.5 7.5 9.2 10.9 14 4.2 6 8.4 12.1 12.7 18.1 3.8 5.4 7.8 10.6 12.3 15.3 2.4 2.6 5 4.9 7.9 7 7.1 5.2 14.6 5.9 22.7 2.9 3.9-1.5 7.6-3.5 11-5.7 6.7-4.4 12.9-9.5 19-14.7 6.2-5.3 12.4-10.7 18.6-15.9 4.7-3.9 9.5-7.5 14.9-10.5 4.4-2.4 8.9-4.3 13.9-5 19.5-2.9 38.6-7.5 57.2-14.1 59.7-21.1 109.1-56.6 147.3-107 50.7-67 70.4-143 63.2-219.5z" fill="#d8cfc7"/><path d="m645.5 692.4c1.8 18.6 2.2 33.5-.1 51.9-6.4 52.9-28.6 98.2-66.5 135.6-32.9 32.5-72.5 52.5-117.9 61-14.6 2.7-29.5 3.9-44.4 3.6-24.5-.5-48.3-4.7-71.4-12.9-2.9-1-5.7-2.1-8.5-3.2-.4-.2-1-.3-1.3.3-.1.2.1.6.2.9.7.9 1.4 1.7 2.2 2.6 38.8 42.7 87 65.6 144.5 69.3 3.2.2 5.8-.5 8.5-2.3 40-26.5 80.1-52.8 120.1-79.2 11.1-7.3 22.1-14.6 33.2-21.9 4.8-3.2 8.4-7.4 10.6-12.7 1.1-2.5 1.9-5.1 2.6-7.7 1.2-4.2 1.8-8.4 2.4-12.7 1-6.8 2-13.6 3.3-20.4 4.1-21.9 15.3-39.4 33.2-52.6.6-.5 1.3-1 1.9-1.4 1.4-.9 1.8-2.1 1.7-3.7-.5-5.6-.6-11.2-1.3-16.7-1.7-13.8-4.6-27.4-9-40.7-10.6-31.7-27.8-59.2-51.4-82.8-.8-.8-1.7-1.5-2.5-2.2-.2-.1-.6 0-.8 0 0 0-.1.3-.1.4.2.6.3 1.2.5 1.8 5 15 8.3 30.3 10.3 45.7z" fill="#edd4c3"/><path d="m735.8 911.1c2.4-.4 4.7-.8 7.1-1.2.9-.2 1.9-.4 2.8-.6 14.9-4.2 28-11.6 39-22.6 11.3-11.3 20.4-24.2 27.6-38.4 4.1-8 7.4-16.3 9.4-25.1 1.5-6.6 2.2-13.2 1.3-20-1.4-10.4-6.6-18.1-15.8-23.2-4.7-2.6-9.7-4.2-14.8-5.3-8.2-1.8-16.5-2.1-24.8-1.7-18.5 1-36.5 4.9-53.3 12.9-25.2 11.9-41.8 31.2-47.3 59-1.1 5.6-2 11.3-2.8 17-1 6.5-1.8 13-3.7 19.3-2.6 8.9-7.7 15.9-15.6 21.1-33.8 22.2-67.6 44.5-101.4 66.7-55.4 36.5-110.8 73-166.2 109.5-4.1 2.7-8.3 5.5-12.4 8.2-.9.6-1.2 1.4-.5 2.4 2 2.9 3.9 5.8 5.9 8.7 3.8 5.6 2.9 5.2 8.2 1.5l189.6-132.3c27.3-19 54.6-38 81.8-57.1 7.7-5.4 16-7.7 25.3-6.9 5.3.5 10.4 1.5 15.6 2.6 5.8 1.3 11.5 2.7 17.3 3.9 9.2 1.9 18.4 2.8 27.7 1.6z" fill="#d8cfc7"/><path d="m641.8 693.1c-15.2-126-127.7-209.4-246.1-195.9-121.6 14-209.5 122.8-196.2 244.9 13.7 125.8 126.1 209.9 244.2 197.5 121-12.7 211.7-121.1 198.1-246.5z" fill="#ffecdc"/><path d="m527.3 1065.2c6.6-.7 16.7-2.6 26.7-4.8 18.3-4.2 36-10.1 53-18.1 56-26.4 98.6-66.8 127.7-121.5.8-1.4 1.5-2.8 2.1-4.3.3-.6-.1-1.3-.9-1.3-1-.1-1.9-.1-2.9 0-8 .7-16 .1-23.9-1.5-7.2-1.4-14.4-3.2-21.5-4.7-4.4-1-8.8-1.8-13.2-2.2-2.1-.2-3.2.6-4.3 2.2-3.9 6.1-8.1 11.9-12.6 17.5-25.1 31-56.3 53.2-93.8 66.8-12.2 4.4-24.8 7.5-37.6 9.7-2.4.4-4.5 1.3-6.5 2.7-25.4 17.8-50.9 35.5-76.3 53.3-1.1.8-3.1 1.2-2.7 2.9.3 1.1 2.2.9 3.4 1.1 26.4 4.6 53 5.6 83.3 2.2z" fill="#ffecdc"/><path d="m702.5 768.6c.3 4.5.6 8.9 1 13.4.1 1.1.2 2.2.4 3.3.1.5.6.8 1.1.6.8-.2 1.5-.6 2.2-1 14.8-7.7 30.6-12.1 47-14.5 2.7-.4 5.4-.6 8.1-1 1.8-.2 2.2-.7 2.2-2.5-.1-1.1-.2-2.2-.3-3.3-1.7-15.5-4.8-30.6-9.1-45.6-3.8-13.2-8.6-26.1-14.5-38.6-1.4-2.9-1.4-2.9-4.2-1.9-1.2.4-2.4.9-3.6 1.4-6.4 2.3-7.2 1.6-6.3-5.3.6-4.4 1.4-8.8 2.3-13.2.4-1.9.2-3.4-.8-5-2.3-3.6-4.5-7.4-6.9-11-40-59.6-94.6-98.3-164.3-115.7-1.4-.3-2.8-.7-4.2-1-1.4-.2-2.1.4-3 2.5-.5 1.2.2 1.8 1 2.4 1 .8 2.1 1.5 3.1 2.2 34 24.8 59.3 56.6 75.7 95.4 1.1 2.7 2.7 4.9 4.9 6.9 23 20.8 40.6 45.4 52.9 73.9 7.6 18.7 12.6 37.9 15.3 57.6z" fill="#ffecdc"/><path d="m223.4 839.3c4.7 24.2 7.4 34.2 13.9 51.3 28.4 75.4 89 134.7 165.1 161.3 6.6 2.3 4.4 2.5 10-1.1 19.4-12.7 38.7-25.5 58.1-38.2 2.8-1.8 5.6-3.7 8.4-5.6.5-.3 1.2-.7.8-1.5-.1-.3-.8-.5-1.2-.5-2.4-.2-4.8-.3-7.2-.6-57.7-6.5-105.2-32.1-142.3-76.7-2.2-2.7-4.7-4.6-7.7-6.1-39.7-19.7-71.2-48.3-94.3-86.1-1.4-2.3-2.2-5-4.5-6.6-.6-.4-.7 1.7.4 8.1.2.8.3 1.6.5 2.3z" fill="#ffecdc"/><path d="m718.9 323.5c2.9-.4 4.7-.9 6.5-1.5l61.5-20.1c30.8-10.1 61.7-20.1 92.5-30.2 35.7-11.7 71.4-23.4 107.1-35.1 4.6-1.5 9.1-3 13.7-4.5.9-.3 2.1-.2 2.4-1.3.3-1.3-1.1-1.3-1.9-1.8-2.7-1.5-5-3.4-6.9-5.9-.8-1.2-1.5-2.4-2.3-3.6-1.2-2-1.5-2.1-3.9-1.4-.5.1-.9.3-1.4.5-9.6 3.1-19.1 6.3-28.7 9.4-41.8 13.6-83.6 27.3-125.3 40.9-41.8 13.7-83.5 27.4-125.3 41-5.1 1.7-4.8 2.1-2.2 6 3.6 5.4 8.5 8.1 14.2 7.6z" fill="#a87b5d"/><path d="m573.1 471.6c-.4-3.7-1.9-6.1-4.4-7.8-1-.7-2.2-1.3-3.3-1.9-14.4-7.2-29-14.2-43.3-21.7-7-3.7-13.3-1.3-16.6 5.5-8 16.7-16.5 33.2-24.8 49.8-2.1 4.1-2.2 4.1 2.4 5.4 15.1 4.3 29.6 10.2 43.5 17.6 5.8 3.1 11.4 6.4 17 9.9 1.7 1.1 2 .9 2.9-.8.5-.8.9-1.7 1.3-2.6 7.6-15.3 15.3-30.6 22.9-45.9.6-1.1 1.2-2.3 1.6-3.5.7-1.5 1-3 .8-4z" fill="#efd9ca"/><path d="m685.8 309.1c.1 1.1.1 1.4.2 1.7.2 1.2.9 1.6 2.1 1.2 1.8-.6 3.7-1.2 5.5-1.8 28.2-9.2 56.5-18.5 84.7-27.7 29.6-9.7 59.2-19.4 88.8-29.1s59.2-19.3 88.8-29c10.3-3.4 20.6-6.8 31-10.2 2.4-.8 2.5-.9 2.4-3.4-.1-3.6.5-7 2-10.3.5-1.1 2.1-2.4 1.4-3.3-1-1.3-2.5.2-3.9.4-.3 0-.6.2-.9.3-23.4 7.7-46.8 15.3-70.1 23-34.2 11.2-68.3 22.3-102.5 33.5-34.5 11.3-68.9 22.5-103.4 33.8-5.3 1.7-10.7 3.4-15.9 5.4-7.1 2.7-10.8 8.9-10.2 15.5z" fill="#bf8555"/><path d="m1625.9 512.8c.1-.9-.4-1.5-1.6-1.6-.8-.1-1.6-.2-2.4-.3-18.1-2.1-36.2-4.3-54.3-6.4-.6-.1-1.3-.1-1.9-.1-.7 0-1.2.4-1.3 1.1-.1.8-.3 1.6-.4 2.4-2 16.5-5.5 32.8-10.1 48.8-.2.8-.4 1.5-.5 2.3-.1.6.3 1 .7 1.1.9.2 1.9.4 2.8.5 19.2 2.3 38.4 4.5 57.6 6.8 1.1.1 2.2.3 3.3.4.9.1 1.5-.4 1.7-1.3.2-1.3.4-2.5.5-3.8 1.2-10.3 2.4-20.6 3.6-31 .8-6.2 1.5-12.4 2.3-18.9z" fill="#c1b6ae"/><path d="m735.9 212.9c-25.3 2.9-50.5 5.8-75.8 8.7-1.6.2-3.2.3-4.8.6-12.1 2.5-18.5 15.1-14.2 25.8 3.7 9.1 12.9 13.4 21.3 11.8 9-1.8 15.1-9.1 15.6-18.3.2-4.5.2-4.5 4.8-5.1 1-.1 1.9-.2 2.9-.3 39.6-4.5 79.1-9.1 118.7-13.6 1.4-.2 2.9-.3 4.3-.5 1.8-.3 2-.5 2.2-2.5.5-5.1 2.3-9.6 5.6-13.5.2-.2.4-.5.6-.8.1-.3.2-.6.1-.9 0-.4-.3-.5-.7-.5-1.6.1-3.2.2-4.8.4-25.3 2.9-50.6 5.8-75.8 8.7z" fill="#a06d4a"/><path d="m767.5 230.5c-26.4 3-52.7 6-79.1 9.1-1.3.1-2.5.3-3.8.4-2.5.4-2.6.4-2.9 2.9-.5 4-1.7 7.8-4 11.2-.8 1.2-2 2-2.3 3.6 1.4 1.4 3 .2 4.5.3.3 0 .6-.1 1-.1 50.7-5.8 101.3-11.6 152-17.4 1.3-.1 2.6-.2 3.8-.5 7.9-1.6 13.2-6.2 15.4-14 1.6-5.5.5-5.2-4.1-4.6-1.1.1-2.2.3-3.3.4-25.7 2.8-51.5 5.7-77.2 8.7z" fill="#bf8555"/><path d="m534.6 997.5c3.4-.8 6.5-1.4 9.6-2.3 23.4-6.1 45.2-15.9 65.1-29.6 21.3-14.6 39.4-32.5 54.1-53.8.8-1.2 1.6-2.4 2.2-3.7.2-.4-.1-1-.7-1-.8 0-1.6.2-2.4.4-3.7 1.1-7 3-10.2 5.2-30.9 21.6-61.8 43.2-92.8 64.8-8.1 5.7-16.3 11.3-24.4 17-.9.6-1.7 1.4-2.5 2.1-.1.1.1.7.2.7.8.3 1.5.2 1.8.2z" fill="#edd4c3"/><path d="m808.7 537.9c-1.5-13.3-4.3-24.4-9.3-34.9-7.7-16.3-19.1-29.8-32.9-41.3-1.2-1-2.5-2-3.8-3-1.6-1.2-2.3-1-2.6.8-.2 1.4-.4 2.8-.6 4.3-.9 8.6-1.1 17.2-.3 25.8.9 9.8 2.7 19.3 6.1 28.5 5.4 14.7 14 27.2 24.7 38.5 2.3 2.4 4.8 4.7 7.2 7 .9.9 1.9 1 3 .2 1.9-1.3 3.9-2.1 6.2-2.5 2.2-.4 2.4-.6 2.5-2.8.5-7.4.5-14.9-.2-20.6z" fill="#e29d39"/><path d="m850.6 565c-5.2.4-11 1.7-16.7 3.2-3.1.8-6.1 1.8-9.1 2.8-1.5.5-2.5 1.3-2.2 3.1.3 1.9-.2 3.8-.7 5.7-.6 2.3-.6 2.3 1.3 3.5 4.5 3 9.3 5.6 14.2 8 19.3 9.5 39.6 13.3 60.9 10.5 11.1-1.4 21.9-4.3 32.3-8.5 1.2-.5 2.3-1 3.5-1.6.7-.4.7-1 .2-1.6-.4-.5-.9-.9-1.4-1.3-6-4.6-12.3-8.5-19-12-19.8-10-40.5-14.7-63.3-11.8z" fill="#e29d39"/><path d="m809.2 613.3c1.7 15.4 5.7 29.2 13.2 42 8.1 13.8 18.6 25.5 31.1 35.5.5.4 1 .8 1.5 1.1 1.8 1.3 2.2 1 2.7-1.3.1-.8.2-1.6.3-2.4.9-6.5 1.1-13 1-19.6-.2-13.2-2.6-26-7.4-38.4-5.9-15.1-15.3-27.9-26.8-39.3-1.6-1.6-3.3-3.1-4.9-4.6-.6-.6-1.4-.9-2.1-.3-2.2 1.6-4.7 2.7-7.4 3.2-.7.1-1.1.6-1.2 1.3-.2 1.3-.3 2.5-.4 3.8-.5 6.7-.1 13.2.4 19z" fill="#e29d39"/><path d="m804.6 590.1c0-1-.5-1.3-1.1-1.6-2.2-1-4.1-2.4-5.8-4.2-1.6-1.7-1.7-1.7-3.7-.7-4.7 2.3-9.3 4.9-13.7 7.8-17.8 11.5-31.3 26.6-39.9 46.1-4.5 10.1-7.7 20.7-9.5 31.6-.2 1.3-.4 2.5-.6 3.8-.2 2.4.2 2.7 2.3 1.9 7.5-2.9 14.6-6.6 21.4-10.7 27.3-16.7 43.4-41.3 50.3-72.3.2-.6.3-1.3.3-1.7z" fill="#e29d39"/><path d="m887.7 476.9c-.1-1.3-.7-1.7-2-1.2-5.1 1.8-10 4.2-14.8 6.8-14.7 7.9-27.5 18-37.6 31.5-10 13.4-16.2 28.6-19.9 44.8-.1.5-.2.9-.3 1.4-.1 1 .1 1.8 1.1 2.4 1.2.7 2.4 1.6 3.6 2.4 1.3.9 1.7 3.1 3.5 3 1.5-.1 2.9-1.2 4.3-1.9 1.7-.9 3.4-1.8 5.1-2.7 14-8.1 26.3-18.1 35.8-31.3 9.3-12.9 15.2-27.3 18.7-42.8 1-4.2 1.7-8.3 2.5-12.4z" fill="#e29d39"/><path d="m721.6 548.6c-10.7 1.2-20.1 3.5-29.3 6.8-2.8 1-5.6 2.3-8.4 3.5-.9.4-1 1.1-.2 1.8.4.3.7.6 1.1.9 13.8 10.4 28.9 18.1 45.8 22.2 19 4.6 37.7 3 56.3-2.1 2.1-.6 4.2-1.4 6.3-2.1 1-.4 1.5-1.1 1.4-2.2-.2-2.1-.2-4.1.5-6.2 1-2.9 1.3-2.8-2-4.9-8-5-16.4-9.2-25.3-12.4-15.3-5.5-31-7.2-46.2-5.3z" fill="#e29d39"/><path d="m1013.9 227.6c.7-.2 2.2-.5 3.7-1.1 9-3.6 13.6-13.6 10.4-22.5-3.3-9.3-13.1-14.4-22.4-11.3-6.8 2.2-10.9 7-12.3 14.1-.1.4.2.9.4 1.3.4-.2.9-.3 1.2-.6 2.1-1.7 4.1-3.6 6.3-5.2 2.9-2.1 6.2-3.4 9.8-3.5 4.4 0 8.2 1.5 10.5 5.4 3.2 5.4.2 13.9-5.7 16.1-7.3 2.8-12.3-3.1-11.5-9.3.1-.4.3-.9.6-1.3.4-.5 1-.8 1.7-.5.4.2.9.5 1 .9.3 1.1.3 2.2.5 3.3.8 3.7 4.3 5 7.4 2.9 1.6-1.1 2.7-2.7 3.2-4.6 1.1-3.7-.3-6.7-3.7-8.3-2.8-1.2-5.6-1-8.4.3-4.9 2.3-8.7 5.9-12 10.1-.8 1-.6 2-.2 3.1 3.1 7.2 10.8 11.7 19.5 10.7z" fill="#a06d4a"/><path d="m665.1 1012.8c-.1-.1-.1-.8-.4-.9s-.9.1-1.3.3-.8.5-1.2.8c-7.2 5.6-14.7 10.7-22.3 15.6-.5.3-1.1.7-1.5 1.1-.2.2-.4.6-.4.8s.5.4.7.5c8.3 1.4 16.8 2 25.2 2.4 1.2.1 1.7-.5 1.6-1.8-.3-4-1-7.9-.7-11.9.1-2.1.2-4.3.3-6.9z" fill="#f8e8a0"/><path d="m793 460.4c-.4.3-.9.6-1.4 1-2.7 2.5-5.6 4.8-8.5 6.9-1.8 1.3-1.7 1.5-.2 3.4 2.3 3 5 5.1 9.1 5.2 2.5.1 5 .9 7.4 1.7 2.6.8 5 1.9 7.6 2.9.8.3 2 1.3 2.5.7.9-1.1-.5-2-1.1-2.8-4.1-5.5-8.2-10.9-12.4-16.4-.6-.8-1.2-1.5-1.9-2.1-.2-.3-.6-.3-1.1-.5z" fill="#f8e8a0"/><path d="m827 510c-.1-.3-.1-.6-.3-.9-2.8-4.8-5.6-9.7-8.4-14.5-.6-1.1-1.2-1.1-2.4-.3-2.1 1.4-4.3 2.8-6.3 4.4-1.9 1.4-4.5 1.7-5.8 4 .8 2.2 1.6 4.5 2.5 6.7.8 2 1 2.2 3.2 1.9 5.1-.6 10.2-.7 15.3-.2.5.1 1 0 1.4-.1.5-.1 1-.4.8-1z" fill="#f8e8a0"/><path d="m807.5 565.3c-5.4.5-9.5 5.5-8.9 11s5.4 9.5 10.9 9c5.4-.6 9.6-5.6 9-11-.5-5.3-5.6-9.5-11-9z" fill="#e29d39"/><path d="m1641.8 827.6c6.4 57.9-26.7 110.9-82 128.4-50.7 16-106.3-4.1-135-49.2-.3-.5-.8-1-1-1.6-1-2.2-2.6-2.8-4.9-2.9-6.3-.1-11.9-2.1-16.9-5.9-2.6-2-4.6-4.4-6.4-7.1-1.4-2.3-1.7-2.3-4.3-1.4-2.8 1.1-5.7 2.2-8.5 3.3-.7.3-1.5.5-2.3.5s-1.4-.6-1.6-1.5c-.2-.7.1-1.4.6-1.7.9-.6 2-1.1 3-1.5 2.7-1.1 5.4-2 8.1-3.1 1.7-.7 1.9-1 1.6-2.9-.3-2.2-.7-4.4-.5-6.7.4-6.3 2.5-11.8 6.5-16.7.6-.7 1.3-1.4 1.9-2.2.8-.8.7-1.7.1-2.6-.4-.5-.7-1.1-1.1-1.6-7.2-11.9-5.7-25.8 4-35.7 1.6-1.6 3.2-3.2 5-4.5 2.4-1.6 3.6-3.8 4.5-6.5 3.5-10.5 8.5-20.4 14.9-29.4 16.6-23.2 38.6-38.8 66.2-46.3 57.8-15.7 120.7 14.6 142.3 75 3 8.4 4.9 17 5.8 23.8z" fill="#524e43"/><path d="m1638 830c-1-8.6-2.7-16.6-5.5-24.3-21.5-60.8-85.7-90.1-143-71.4-33.4 10.9-56.9 32.9-70.8 65.1-.6 1.3-1 2.7-1.4 4.1 0 .1.4.6.5.6.6-.2 1.2-.5 1.7-.8 5.9-3.2 11.8-6.4 17.7-9.6 1.1-.6 2.3-1.2 3.5-1.6 1-.4 1.9 0 2.4 1 .3.7.5 1.5.7 2.3.5 2.3 1 4.7 1.5 7 1.8 8.1 3.6 16.2 4.3 24.5.7 7.9.3 15.7-3.8 22.8-.6 1.1-.3 1.6 1.1 2 4.4 1.3 8.9 2.6 13.3 3.9 1.1.3 2.2.6 3.2 1 .9.4 1.3 1.6.9 2.4-.2.4-.4.9-.7 1.3-5.3 8.2-10 16.7-15.9 24.5-5.4 7.1-11.2 13.6-20.1 16.4-.9.3-1.1 1.1-.6 1.9s1 1.6 1.5 2.5c28.4 43.5 81.7 61.6 129.5 46.7 52.9-16.4 86.2-67.6 80-122.3z" fill="#fff5de"/><path d="m1417.8 851.1c-11.7 1.1-21.9 11.4-22.2 24.4 0 1.3.1 2.6.4 3.8.3 1.7 1 2 2.8 1.4 1.5-.5 3-1.2 4.5-1.7 6-2.3 11.9-4.6 17.9-6.8 1-.4 2.1-.7 3.2-.8.6-.1 1.2.3 1.5.9.3.8.3 1.7-.4 2.2-1.2.7-2.5 1.3-3.9 1.9-6.3 2.4-12.5 4.8-18.8 7.2-1.2.5-2.4.9-3.5 1.5-.6.3-.9 1-.5 1.6.8 1.3 1.7 2.7 2.7 3.9 7.1 8 21 11.2 31.9 3.7 2.8-1.9 5.2-4.2 7.4-6.8 7.1-8.1 12.4-17.4 18-26.5.5-.8.2-1.6-.8-1.8-10.6-3-21.1-6.6-32.1-7.7-2.7-.5-5.4-.3-8.1-.4z" fill="#c9c06d"/><path d="m1445.5 823.3c-1-8.3-3.1-16.3-4.9-24.4-.3-1.6-.9-1.9-2.3-1.1-5.9 3.2-11.8 6.4-17.6 9.7-3.8 2.1-7.3 4.5-10.7 7.3-2.5 2-4.8 4.2-6.7 6.8-5.9 8.1-6.1 19.6-.5 27.9 1.4 2 1.7 2.1 3.8 1.1 1.7-.8 3.5-1.6 5.3-2.1 1.9-.5 3-1.6 3.8-3.3 1.9-4.4 4-8.7 6-13.1.4-.9.7-1.8 1.6-2.4.6-.4 1.2-.5 1.8-.2s.9.8 1 1.5c.1 1.2-.5 2.2-1 3.2-1.6 3.6-3.3 7.3-5 10.9-.5 1.1 0 1.9 1.2 2 6 0 11.7 1.1 17.5 2.4 2.1.5 2.2.3 3.5-1.6 2.2-3.4 3.3-7.2 3.7-11.3.4-4.5 0-8.9-.5-13.3z" fill="#c9c06d"/><path d="m1591.1 700.4c-7.3 1.1-14.5 2.3-21.8 3.4-1.3.2-2.5.4-3.8.4-2.6-.1-4.9-2-5.5-4.6-.6-2.5.5-5.2 2.8-6.6.8-.5 1.7-.8 2.7-1 10.2-2.5 20.5-5 30.8-7.5l14.4-3.6c.5-.1 1.4-.1 1.4-.9 0-.7-.5-1.1-1-1.5-3-2.4-4.8-5.5-6.1-9-1-2.7-.4-4 2.4-4.5 2-.4 4.1-.7 6.2-.7 4.6 0 8.4 1.8 11.4 5.3 1.1 1.3 1.4 1.2 2.8.3.1-.1.2-.2.4-.3 3.2-1.6 5.7-3.5 4.8-7.6 1.1-6.5 4.6-11.3 10.8-13.6 6.4-2.4 12.6-1.5 18 3.1 1.3 1.1 2.3 3.1 3.7 3.6 1.7.5 2.8-1.8 4.3-2.5 1.8-.9 3.6-1.4 5.5-1.6 3.4-.3 6.7.2 9.9 1.5 1.9.8 2.5 2 1.7 3.8-1.8 4.1-4.4 7.4-8.4 9.6-.8.4-1.8.7-2.6 1.1-.6.3-.8 1.1-.2 1.5 1.2.8 2.4 1.6 3.6 2.4 12.1 7.5 24.2 15 36.3 22.4 1.1.7 2.2 1.3 3.2 2.1 2.5 2 3.2 5.1 1.8 7.7-1.4 2.7-4.3 3.8-7.4 2.8-1.4-.5-2.6-1.2-3.9-1.8-12-6-24-12-36.1-18-1.3-.6-2.6-1.2-3.9-1.8-.6-.3-1.3.2-1.2.9.5 2.9.5 5.8-.2 8.6-1.8 7-2.7 7.1-8.6 3.5-2-1.2-3.2-3.5-5.5-4.4-1.6 1.5-3.1 3.2-4.9 4.6-3.6 2.7-7.7 3.7-12.2 3.3-.6-.1-1.3-.3-1.9-.3-2.1-.3-2.1-.3-2.6 1.6-.1.5-.2.9-.3 1.4-1.8 6.9-6.9 10.1-13.1 12-1.1.4-2.1-.3-2.6-1.5-1-2.6-1.3-5.3-1.1-8 .2-2.6.9-5 2.1-7.3.8-1.5.4-2-1.4-1.7-2.1.3-4.1.6-6.2.9-6.2 1-12.3 1.9-18.5 2.9z" fill="#524e43"/><path d="m1611.8 668c-.7.1-1 .1-1.3.2-1.1.2-1.6 1-1.1 2.1 2.2 4.8 5.8 7.6 11.2 7.5.6 0 1.3-.1 1.9-.1 2.2 0 2.9.7 2.8 2.8-.1.8-.1 1.6-.3 2.4-.3 1.6-1.2 2.2-2.7 1.9-.5-.1-.9-.2-1.4-.3-4.9-1.4-8.7.6-12 4.1-.8.9-.6 1.7.5 2.3 4.2 2 8.3 2.2 12.3-.5.5-.4 1-.8 1.5-1.1 1.4-.9 2.4-.8 3.3.5.6.8 1.1 1.6 1.6 2.4.8 1.4.5 2.4-.8 3.2-1 .6-2 1-2.9 1.6-4.6 2.9-6.1 7.2-5.4 12.4.2 1.2 1 1.7 2 1.3 4.9-2 7.5-5.9 7.6-11.2 0-1-.1-1.9-.1-2.9.1-1.3 1.2-2.1 2.3-1.7 1.7.5 3.3 1.4 4.9 1.8 5.1 1.2 9.6-.3 13-4.2s4.4-8.4 2.7-13.4c-3.2-9.5-15.4-12.4-22.7-5-3.2 3.2-3.3 3.2-5.8-.5-2.8-4.3-6.5-6-11.1-5.6z" fill="#7f6c60"/><path d="m1649.9 650.8c-7.1.7-11.8 4.8-13.1 10.5-.2 1.1-.2 2.2-.2 3.3 0 .7.5 1.2 1.2 1.3.6.1 1.3.1 1.9.1 8 .1 17.6 8.7 16.2 18.4-.2 1.6-.1 3.2.8 4.6 1.3 2.3 3.1 4 5.4 5.3.6.4 1.3.2 1.6-.5 1.5-4.2 1.3-8.2-1.7-11.7-.8-1-1.8-1.8-2.8-2.6-2.6-2.2-2.5-2.9.1-5.2.4-.3.7-.7 1.1-.9 1-.7 2.1-.6 3 .4l1.2 1.5c2.9 3.9 6.9 4.9 11.5 4.3 1.2-.1 1.7-.9 1.3-2-1.9-4.2-4.8-7.1-9.6-7.6-1-.1-1.9-.2-2.8-.4s-1.3-.9-1.4-1.7c0-.8 0-1.6.2-2.4.2-1.1.9-2.2.7-3.2-.2-1.2-1.2-2.2-1.8-3.3-.3-.6-.5-1.2-.9-1.7-3.2-4.6-7.5-6.8-11.9-6.5z" fill="#7f6c60"/><path d="m1585.2 697.5c4.9-.7 10.2-1.4 15.4-2.2 1.4-.2 2.8-.5 4.2-.8.7-.2 1-1 .3-1.4-1.9-1.3-2.6-2.8-1.1-4.8.2-.3.4-1.1.2-1.3-.4-.5-1.1-.3-1.7-.1-11.8 2.9-23.6 5.8-35.4 8.7-.8.2-1.5.4-2.2.8s-1.2 1.1-1.1 2c.1 1.1.8 1.8 1.8 1.9 1.1.1 2.2 0 3.3-.2 5.2-.8 10.6-1.7 16.3-2.6z" fill="#938882"/><path d="m1717.3 700.1c0-.6-.2-1.2-.7-1.6-1-.8-2.1-1.5-3.2-2.2-8.4-5.2-16.9-10.4-25.3-15.6-1.5-.9-3-1.9-4.5-2.7-1.2-.7-1.9-.4-1.6 1 .4 2.1-.2 3.4-2.4 3.9-.1 0-.3.2-.4.3-.6.4-.5 1.1.1 1.5.3.2.5.4.8.5 10.9 5.4 21.7 10.9 32.6 16.3.7.4 1.5.6 2.3.8 1.1.1 2.3-1 2.3-2.2z" fill="#938882"/><path d="m1672.8 663.4c4-.5 7.5-3 9.1-6.5.3-.6.3-1.3-.5-1.6-3.8-1.3-7.5-1.3-10.9 1.1-2 1.5-4.1 3-4.3 5.8 2.2 1.4 4.6 1.3 6.6 1.2z" fill="#7f6c60"/><path d="m1646 713.2c1.9-.3 5 .2 8 1.5.9.4 1.5.2 2-.7.2-.4.4-.9.6-1.3 3.4-6.5 9.3-8.4 16-8.4 2.1 0 2.8.9 2.8 3-.1 4.1-1.3 7.9-3.6 11.3-.9 1.3-.5 2.1 1.1 2 5.8-.2 11.5-.4 17.3-.6 9.6-.4 19.2-.8 28.8-1.1 1.1 0 2.3 0 3.3.3 2.9.7 4.6 3 4.5 6 0 2.6-1.8 4.9-4.4 5.6-1.5.4-3.2.5-4.7.7-14.1 1.8-28.2 3.7-42.3 5.5-1.3.2-2.5.4-3.8.7-.6.1-.7.7-.5 1.1.3.5.8 1 1.2 1.5 3.3 3.7 4.3 8.1 4.4 12.9 0 2-.8 2.9-3 2.8-6.6-.1-12.2-2.3-15.5-8.5-1.2-2.3-1.3-2.3-3.9-1.1-3.5 1.6-7 2.2-10.7 1.4-8.4-1.6-14.6-9-14.3-17.4.2-8.9 6.6-16 16.7-17.2z" fill="#524e43"/><path d="m1660.1 738.6c-.3 1.6.2 3.1.7 4.7 1.5 5.2 5.3 7.7 10.4 8.5 1 .2 1.6-.3 1.5-1.3-.4-4.6-2.4-8.2-6.7-10.2-1.9-.9-3.9-1.3-6-1.5-1.2-1-1-2.1-.6-3.5 1.2-3.9 1.4-4.1 5.4-2.8 4.8 1.6 8.8.3 12.3-3 .7-.7.7-1.4 0-2-4-2.7-8.2-3.5-12.6-1.1-.7.4-1.4.8-2.1 1.1-.4.1-1 .1-1.4 0-1.2-.5-3-4.1-2.5-5.3.2-.5.7-1.1 1.3-1.3.9-.4 1.9-.4 2.8-.7 5.2-1.4 8-5 8.8-10.2.2-1.4-.5-2-2-1.8-5.2.9-8.8 3.5-10.2 8.8-.2.8-.4 1.5-.7 2.3-.4.9-1.5 1.3-2.4.8-1.3-.6-2.5-1.5-3.8-2.1-5.3-2.3-11.5-1-15.4 3.2-3.8 4.1-4.7 10.1-2.3 15.1 3.3 6.9 12.7 10.7 20.3 5 1.5-1.1 3-2.5 5.2-2.7z" fill="#7f6c60"/><path d="m1701 730c0-.2 0-.3-.1-.5 5.7-.7 11.4-1.3 17.1-2 1.3-.2 2.5-.4 3.7-.8.7-.3 1.2-1 1.2-1.9s-.5-1.5-1.3-1.8c-1.4-.6-2.8-.4-4.2-.3-7.5.3-15 .5-22.5.8-4.3.2-8.6.3-12.9.6-.4 0-1 .3-1.1.5-.1.3.1 1 .4 1.2 2 1.6 1.8 3.2.2 4.9-.2.2-.3.6-.2.9.1.6.7.6 1.1.5 6.3-.6 12.4-1.3 18.6-2.1z" fill="#938882"/><path d="m1935.1 872.4c-16.7 1.9-31.9-10.1-33.7-26.9-1.8-15.5 8.5-31.6 26.8-33.7 16.9-2 31.8 9.6 33.7 26.8 2 18-10.8 31.9-26.8 33.8z" fill="#524e43"/><path d="m1958 839c-2.3-15.3-15.3-25-29.7-23.1-16.5 2.2-24.8 16.6-23 29.7 2 14.9 15.1 24.6 29.3 22.9 14.7-1.8 24.8-14.4 23.4-29.5z" fill="#fff"/><path d="m1974.1 562.1c-.8-.1-2.1-.1-3.4-.3-32.2-3.8-64.4-7.6-96.6-11.4-28.4-3.3-56.8-6.6-85.2-10-1.7-.2-3.5-.4-5.2-.8-1-.2-1.7-1.3-1.4-2.2.2-.9.9-1.4 1.7-1.4 1.3 0 2.6 0 3.8.2 60.8 7.1 121.5 14.3 182.3 21.4 1.6.2 3.2.4 4.7.7 1 .2 1.7.9 1.7 2 0 1-.9 1.7-2.4 1.8z" fill="#524e43"/><path d="m1840.5 567.6c-.7-.1-1.7-.1-2.6-.2-44.3-5.2-88.5-10.4-132.8-15.6-1-.1-1.9-.2-2.9-.4-.5-.1-.9-.2-1.4-.3-1-.3-1.7-1.3-1.5-2.1.2-.9.9-1.4 1.7-1.4 1.3 0 2.6 0 3.8.2 15.5 1.8 31.1 3.7 46.6 5.5 28.4 3.3 56.8 6.6 85.2 10 1.4.2 2.9.3 4.3.6 1.3.2 2.1 1.2 1.9 2.3-.2 1-1.1 1.2-2.3 1.4z" fill="#524e43"/><path d="m1885 590.1c.8.1 1.8.1 2.8.2 12.9 1.5 25.7 3 38.5 4.6 1.1.1 2.2.3 3.3.6.8.2 1.3 1 1.2 1.9 0 .9-.6 1.5-1.5 1.6s-1.9.1-2.9 0c-13.5-1.6-27-3.2-40.5-4.8-.8-.1-1.6-.3-2.3-.6-.9-.3-1.1-1.1-1-2 .1-.7.6-1.1 1.2-1.3.4-.1.7-.1 1.2-.2z" fill="#524e43"/><path d="m1212.6 168.9c80.5-7.7 153.7 11.3 218.2 60.5 48.5 37 82.3 84.8 102.2 142.5 8.9 25.9 14 52.5 15.5 79.8 2.2 40.2-3.4 79.4-16.8 117.5-29.4 83.7-96.1 152.9-184.6 184.1-17.4 6.1-35.2 10.7-53.4 13.3-5.3.7-10.2 2.5-14.8 5.3-5.5 3.3-10.5 7.2-15.4 11.4-6.8 5.8-13.6 11.7-20.4 17.4-5.1 4.3-10.5 8.4-16.4 11.7-3.9 2.2-8 4-12.5 4.8-7 1.4-13.3-.1-19.1-4.1-3.3-2.3-6.3-4.9-9-7.9-3.9-4.2-7.5-8.7-10.8-13.4-4.3-6-8.4-12.1-12.7-18.1-3.4-4.8-7-9.5-10.9-14-4.5-5-9.7-8.6-16-11.1-76.4-30.2-138-91.9-168.3-168.3-7.2-18-12.6-36.6-16.2-55.6-16.2-84.9 5-175.4 60.8-244.6 37.3-46.3 84.2-78.9 140.5-97.9 18.6-6.1 41.3-11.1 60.1-13.3z" fill="#524e43"/><path d="m1218.7 172.2c-25.7 3.3-45.6 7.4-64.9 14-57.9 19.5-105.7 53.2-142.8 101.8-45.7 59.8-65.2 127.8-60.6 202.7 1.6 26.3 7.3 51.9 16.1 76.8 27.5 78.3 88.6 145.3 170.9 177.8 6.4 2.5 11.8 6.3 16.4 11.3 3.9 4.2 7.4 8.8 10.7 13.5 4.1 5.7 8 11.6 12.1 17.3 3.7 5.2 7.5 10.3 11.9 15 2.9 3 5.9 5.8 9.5 8.1 5.8 3.7 11.9 4.2 18.4 2.1 3.8-1.3 7.4-3.1 10.8-5.2 4.8-3 9.2-6.3 13.5-10 6.7-5.7 13.4-11.5 20.1-17.2 4.8-4 9.7-7.9 15-11.2 5.1-3.1 10.5-5.4 16.5-6.2 19.2-2.7 37.9-7.6 56.2-14.3 54.4-19.9 99.6-52.7 134.8-98.7 45.1-58.9 64.9-125.8 61.1-199.8-1.3-24.5-5.9-48.5-13.5-72-18.4-56.6-50.4-104-96.9-141.2-64.7-51.5-138.8-71.7-215.3-64.6z" fill="#e26d56"/><path d="m213.8 741.7c-12.7-116.8 71.8-218.3 185.2-230.3 110.4-11.7 215.9 66.9 228.5 185.2 12.2 114.3-70.4 215.6-183.6 228.5-111.1 12.6-216.1-65.8-230.1-183.4z" fill="#524e43"/><path d="m623.7 695.4c-13.7-115.6-116.9-191.9-225-180.2-110.7 12.1-194 111.4-181 226 13.2 115.9 117 192.5 225.8 180.1 111.4-12.7 192.5-112.7 180.2-225.9z" fill="#e26d56"/><path d="m801.1 526c.6 6.4.7 12.8-.2 19.1-.2 1.4-.5 2.8-.9 4.2-.3 1.2-1.6 1.7-2.7 1.2-.6-.3-1.2-.6-1.7-.9-10.9-8.1-19.6-17.9-24.8-30.5-5.1-12.5-5.9-25.4-4-38.6.7-4.4 2.1-5.1 5.6-2.4 16 12.1 26.5 27.5 28.7 47.9z" fill="#524e43"/><path d="m797 525.6c-1.6-17.3-10.8-31.2-24.5-42.5-1-.9-1.8-.6-2 .7-.9 5.2-.7 10.5-.3 15.8.9 10.7 4.3 20.6 10.5 29.4 4 5.6 8.6 10.7 14.1 15 1.4 1.1 1.9.9 2.2-.8.8-5.5.7-11.1 0-17.6z" fill="#f29866"/><path d="m859.6 569.6c11-1.6 21.9.1 32.4 4.5 6.5 2.7 12.6 6.2 18.1 10.6.9.7 1.7 1.4 2.4 2.3.6.7.5 2.1-.3 2.6-.9.6-1.9 1.2-2.9 1.6-26.1 11.2-50.4 8.1-73-9-.4-.3-.8-.6-1.1-.9-2.4-2.1-2.2-3.6.6-5 7.4-3.7 15.3-5.8 23.8-6.7z" fill="#524e43"/><path d="m886.8 593.3c6.1-.8 13.4-2.6 18.1-4.6 1.8-.8 2-1.5.5-2.6-3.8-2.7-7.8-5-12-7.1-14.4-6.9-29.2-7.8-44.4-3.4-2.6.7-5.2 1.6-7.7 2.5-1.6.6-1.7 1.4-.4 2.3 4 3 8.3 5.4 12.8 7.5 10.5 5 21.6 6.9 33.1 5.4z" fill="#f29866"/><path d="m850.7 647.3c.6 6.8.7 13.2-.2 19.5-.2 1.3-.4 2.5-.7 3.8-.5 1.9-1.9 2.4-3.7 1.4-.4-.2-.8-.5-1.2-.8-10.7-8-19.3-17.7-24.4-30.2-5.2-12.6-6-25.7-4-39 .1-.8.3-1.6.5-2.3.5-1.3 1.8-1.8 3.1-1.1.7.4 1.4.8 2 1.3 11 8.4 19.7 18.6 24.7 31.6 2.2 5.2 3.2 10.7 3.9 15.8z" fill="#524e43"/><path d="m846.6 646.2c-1.4-15.6-10.3-29.3-23.5-40.6-.5-.4-1-.8-1.6-1-.4-.2-1-.2-1.1.4-.2.8-.4 1.6-.5 2.3-.8 9.6-.1 19.2 3 28.4 4.1 12.3 11.9 22.1 21.9 30.2 1.1.9 1.7.6 1.9-.8.8-5.6.7-11.1-.1-18.9z" fill="#f29866"/><path d="m793.3 598.7c-.1 1.3-.3 2.9-.5 4.4-1.1 6.8-3.1 13.4-5.8 19.7-6.4 14.7-17.4 25.1-31.5 32.3-2.7 1.4-5.5 2.5-8.3 3.7-.9.4-1.9.5-2.8.6-1 .1-1.9-.7-2-1.6-.1-.6-.1-1.3-.1-1.9 2.2-17.3 8.5-32.7 21.8-44.7 7-6.3 14.9-11 23.6-14.4.9-.3 1.8-.6 2.8-.8 1.6-.3 2.7.6 2.8 2.7z" fill="#524e43"/><path d="m788.7 601.9c-.3-.2-.5-.5-.8-.5-.5 0-1 0-1.4.2-15.1 6.7-27.1 16.7-34.1 32.1-2.6 5.7-4.4 11.6-5.5 17.8-.1.6-.2 1.3-.2 1.9 0 .5.4.8.9.8.5-.1 1-.2 1.4-.3 22.2-9.8 35.4-26.5 39.5-50.5.2-.6.2-1 .2-1.5z" fill="#f29866"/><path d="m874.4 495c0 .5 0 1.3-.1 2.1-1.9 13.7-6.4 26.4-15.3 37.1-8.4 10.2-19.3 17.1-31.6 21.7-.6.2-1.2.3-1.9.4-.9.1-1.9-.7-2.1-1.6-.1-.6-.1-1.3 0-1.9 2.4-19.9 10.3-36.7 26.7-48.9 5.8-4.3 12.1-7.8 18.8-10.3.9-.3 1.8-.7 2.7-.9 1.6-.5 2.6.5 2.8 2.3z" fill="#524e43"/><path d="m829.8 550.6c1.5-.7 3.6-1.7 5.8-2.8 12.2-6.5 21.9-15.4 28-28 2.9-6.1 4.9-12.5 6.2-19.1.1-.6.2-1.3.2-1.9 0-.8-.5-1.1-1.3-.9-.5.1-.9.3-1.4.5-17.5 7.8-30.2 20.2-36.3 38.7-1.4 4.1-2.5 8.3-3.1 12.6-.1.8.5 1.3 1.9.9z" fill="#f29866"/><path d="m756.3 580.9c-13.2 1.9-25.8-1-37.7-7.1-4.4-2.3-8.6-4.9-12.5-7.9-.9-.7-1.7-1.4-2.4-2.3-.8-.9-.5-2.3.4-3 .5-.4 1.1-.7 1.6-1 16.6-7.3 33.7-9.6 51.2-3.7 8.6 2.9 16.3 7.2 23.4 12.8 3.2 2.6 3 3.9-.8 5.7-7.3 3.6-15 5.7-23.2 6.5z" fill="#524e43"/><path d="m756.6 576.9c5.4-.4 11.1-2.1 16.7-4 .5-.2.9-.4 1.3-.5 1.8-.8 1.8-1.4.2-2.6-17.7-12.5-36.8-16.5-57.7-10-2.5.8-5.3 1.2-7.4 3 1.2 2.9 4.2 3.8 6.5 5.2 12.3 7.3 25.5 10.9 40.4 8.9z" fill="#f29866"/><path d="m815 574.6c.4 3.7-2.2 6.9-5.9 7.2-3.5.3-6.6-2.1-7.1-5.6-.6-3.6 2-7 5.7-7.4 3.8-.4 6.9 2 7.3 5.8z" fill="#524e43"/><path d="m808.3 572.8c-1.3.1-2.3 1.3-2.2 2.6 0 1.4 1.1 2.4 2.5 2.3 1.5 0 2.7-1.4 2.5-2.8-.3-1.2-1.5-2.2-2.8-2.1z" fill="#f29866"/><path d="m1527.3 809.9c-.1.9.1 2.6-.3 4.1-1.1 5.1-2.3 10.2-3.5 15.3-.1.5-.3.9-.4 1.4-.6 1.4-2.1 1.7-3.1.7-.4-.5-.9-.9-1.2-1.5-2.7-4.3-5.5-8.6-8.1-12.9-1-1.6-1.7-3.4-2-5.3-.8-4.7 2.5-9.7 8.1-10.6 5.1-.9 9.7 2.9 10.5 8.8z" fill="#524e43"/><path d="m1523.5 810.4c-.2-3.1-2.1-5.2-5-5.6-2.3-.3-4.8 1.3-5.6 3.6-.6 1.6-.5 3.2.3 4.6 1.1 2.3 2.4 4.5 3.7 6.7 1 1.6 1.7 3.5 3.4 4.5 1.9-1.4 1.5-3.6 2-5.5.6-2.7 1.2-5.5 1.2-8.3z" fill="#e2c58a"/><path d="m1490.1 840.7c.9 0 1.9.1 2.8.1 5.3.3 10.5 1.2 15.7 2.2.8.2 1.6.3 2.3.6 1 .4 1.4 2 .6 2.9-.3.4-.6.7-1 1-4.4 3.5-8.8 7-13.6 9.9-.7.4-1.4.8-2.1 1.1-3.7 1.8-7.2 1.2-10.3-1.4-2.9-2.4-3.9-6.5-2.7-10 1.4-3.8 4.3-5.8 8.3-6.4z" fill="#524e43"/><path d="m1485.2 850.8c.4 3.8 4.4 6.1 7.8 4.4 4-2 7.6-4.7 11-7.5.5-.4.3-1.4-.3-1.5-4.4-.9-8.8-1.6-13.3-1.5-3.2 0-5.5 2.9-5.2 6.1z" fill="#e2c58a"/><path d="m1495.6 814.7c2.9-.3 5.3.5 7.4 2.6.6.6 1.1 1.1 1.6 1.8 3.6 4.5 6.7 9.3 9.7 14.2.5.8 1 1.7.4 2.7s-1.5 1.1-2.5 1c-6.1-1-12.3-1.9-18.2-3.7-3.6-1.1-6-3.5-6.8-7.3-1-5.8 2.7-10.8 8.4-11.3z" fill="#524e43"/><path d="m1496.2 818.4c-2.6.2-4.6 1.9-5.2 4.4-.6 2.4.5 5 2.9 6 4.3 1.8 8.8 2.7 13.4 3.1.6.1 1-.9.7-1.4-2.2-3.7-4.6-7.3-7.6-10.4-1.1-1.3-2.6-1.8-4.2-1.7z" fill="#e2c58a"/><path d="m1521.1 876.8c0-.6 0-1.7.1-2.8.9-5.8 2.4-11.5 4.1-17.1.1-.4.4-.9.6-1.3.5-.8 1.8-1 2.5-.4.5.4.9.9 1.3 1.4 3.1 4.6 6.1 9.3 8.5 14.3 1 2 1.8 4 1.5 6.4-.6 4.9-4.5 8.6-9.3 8.5-4.9-.1-8.8-3.7-9.3-9z" fill="#524e43"/><path d="m1535.9 875.5c-.1-.3-.2-.9-.5-1.5-1.6-4-3.9-7.6-6.3-11.2-.4-.6-1.3-.5-1.5.2-1.4 4.2-2.4 8.6-2.8 13 0 .5 0 1 .1 1.4.5 2.7 3.2 4.6 6 4.4 3.1-.3 5.3-2.9 5-6.3z" fill="#e2c58a"/><path d="m1552.7 813.9c.3 2.6-.7 5-2.6 6.9-1.5 1.5-3 2.9-4.7 4.1-3.2 2.4-6.5 4.7-9.7 7-.6.5-1.3.9-2.1 1.2-.9.4-2.1-.2-2.3-1.2-.1-.6-.2-1.3-.2-1.9.6-6 1.4-12.1 2.9-18 .6-2.4 1.9-4.4 4.1-5.7 6.2-3.8 14.3.3 14.6 7.6z" fill="#524e43"/><path d="m1548.9 813.8c-.4-2.7-2.2-4.5-4.8-5-2.2-.4-4.5.8-5.6 2.9-.6 1.1-1 2.4-1.2 3.6-.6 3-1 6-1.6 8.9-.1.8-.4 1.7.4 2.2.3.2 1.2-.3 1.7-.6 3.2-2.2 6.2-4.5 9-7.1 1.5-1.5 2.4-3.1 2.1-4.9z" fill="#e2c58a"/><path d="m1567.1 835.1c.8 5.5-3.4 10.5-9 10.7-1.4 0-2.9 0-4.3-.3-4.8-.9-9.7-1.9-14.5-2.9-.8-.2-1.5-.5-2.2-.8-.8-.4-1-1.9-.4-2.5.4-.5.9-.9 1.4-1.3 4.4-3.2 8.8-6.3 13.5-9 1.4-.8 2.8-1.5 4.4-1.8 5.3-.9 10.3 2.6 11.1 7.9z" fill="#524e43"/><path d="m1558.3 842c2.5-.4 4.3-1.9 4.8-4.2.5-2.2-.1-4.1-1.8-5.6-1.8-1.5-3.8-1.8-5.8-.8-3.9 1.8-7.5 4.2-10.9 6.8-.4.3-.7.7-.4 1.2.1.2.4.5.7.6 4 .9 8.1 1.8 12.2 2z" fill="#e2c58a"/><path d="m1496.3 871.4c-.3-2.5.5-4.9 2.3-6.9 1.2-1.3 2.5-2.4 4-3.4 3.8-2.6 7.6-5.2 11.5-7.7.7-.4 1.4-.8 2.1-1.1.8-.3 2.1.4 2.2 1.2s.2 1.6 0 2.4c-1 5.1-2 10.3-3.1 15.4-.3 1.2-.7 2.5-1.3 3.6-1.8 3.7-5.9 5.8-9.9 5.1-4.4-.8-7.4-4.1-7.8-8.6z" fill="#524e43"/><path d="m1500.1 871.5c.4 2.4 2.3 4.3 4.7 4.7 2.3.4 4.8-.9 5.8-3.3 1.7-4.1 2.4-8.6 3.1-13 .1-.7-.6-1.3-1.1-1-3.9 2.2-7.6 4.7-10.8 7.8-1.4 1.3-2 3-1.7 4.8z" fill="#e2c58a"/><path d="m1561.3 859.6c.6 4-1.3 7.9-4.4 9.7-3.5 2-7 1.9-10.3-.4-1.1-.8-2.1-1.9-3-3-3.4-4.2-6.3-8.8-9.2-13.4-.3-.4-.5-.8-.7-1.3-.6-1.3.2-2.7 1.6-2.7h.9c6.1.8 12.3 1.8 18.2 3.7 3.1 1 5.3 2.9 6.4 5.9.3.7.5 1.3.5 1.5z" fill="#524e43"/><path d="m1557.6 860.6c-.6-2.9-2.6-4.3-5.2-5.1-5-1.6-12.6-2.6-12.4-1.9 1.6 3.8 4.3 7 6.8 10.2.6.7 1.3 1.5 2 2 1.8 1.3 3.8 1.4 5.8.3 2.1-1.1 3.3-3.4 3-5.5z" fill="#e2c58a"/><path d="m1229.9 661.2c-.6-.4-1.2-.3-1.8.2-1.2.8-2.3 1.7-3.5 2.5-10.7 7.5-22.2 13.2-34.9 16.6-10.9 2.9-22 4-33.3 3.7-8-.2-16-1-23.8-2.6-1.4-.3-2.8-.7-4.2-1.1-1.1-.4-1.6-1.7-1.1-2.8.4-.8 1-1.7 1.6-2.4 14.9-18.6 33.1-32.9 55.8-40.8 10.5-3.7 21.4-5.3 32.5-5.8.8 0 1.6 0 2.4-.1.1 0 .4-.2.4-.2-.1-.3-.1-.7-.3-.8-1.1-.6-2.3-1.1-3.5-1.6-18.6-8.1-34-20.3-45.7-36.9-.5-.7-1-1.3-1.4-2-.7-1.2-1.7-1.2-2.9-.8-4.9 1.9-10 3.3-15.1 4.5-13.7 3.2-27.6 3.9-41.5 2-36.9-5.2-65.3-23.7-85.5-55-.2-.3-.3-.5-.5-.8-2.3-3.8-1.9-3.4-6-3-10.3.8-18.3-6.5-18.9-16.7 0-.8 0-1.6 0-2.4 0-1.9-.1-2.1-2.2-2.2-7.3-.3-11.6-4.7-14.5-10.9-.9-1.9-.4-3 1.5-3.8 4.7-1.9 9.5-2.6 14.5-.7.6.2 1.3.6 1.7 0 .3-.4.2-1.2 0-1.8-2.2-7.8-4.5-15.7-6.7-23.5-2.2-7.7-4.4-15.4-6.6-23-.4-1.3-.6-2.5-.3-3.8.6-2.4 2-4 4.4-4.5 2.6-.6 4.9.2 6.3 2.3.6.9 1 2 1.4 3 2.2 5.5 4.3 11 6.4 16.5.3.7.6 1.5 1 2.1.1.2.5.3.8.3 0 0 .2-.3.2-.4.2-1.4.4-2.8.6-4.3 5.9-45.8 38-84.1 82.1-97.7 17.2-5.3 34.8-6.7 52.6-4.1 1.3.2 2.5.4 3.8.5 1 .1 1.6-.4 1.5-1.3-.1-1.1-.3-2.2-.5-3.3-3.8-22.8-1.2-44.9 7.9-66.2.3-.7.6-1.5.8-2.2.1-.2-.2-.6-.3-.8 0 0-.3 0-.4.1-1.2.8-2.3 1.7-3.5 2.6-41.3 32.4-82.6 64.7-123.9 97.1-2.3 1.8-4.5 3.6-6.9 5.2-14.3 9.5-33.8.7-35.5-17-.7-7.3 1.8-13.5 7.1-18.6 1.3-1.2 2.7-2.3 4.1-3.3 44.2-34.6 88.3-69.3 132.5-103.9 1.1-.9 2.3-1.8 3.5-2.6.9-.6 1.9-.4 2.5.4s.4 1.5-.2 2.2c-.8 1-1.8 1.8-2.6 2.8-4.9 5.9-6 12.6-3.3 19.8 1 2.7 1.7 2.9 4.1 1 4.9-3.8 9.8-7.7 14.7-11.5 3.8-3 7.6-5.9 11.3-8.9.8-.6 1.5-1.2 2.3-1.7 1.5-1 2.7-.8 3.7.6 2 2.7 3.4 5.8 3.9 9.2.1.9.3 1.9.6 2.8 0 .1.7.3.8.2.9-.9 1.8-1.8 2.6-2.7 7-8.4 15.1-15.7 24.2-21.7 18.1-12.1 38-18.8 59.7-20.1 49-3.1 100.9 26 119.2 81.6 7.2 22 7.6 44.3 1.9 66.7-.4 1.7-1.8 3.5-.9 5 1 1.8 3.2.9 4.9 1.1 46.8 5.4 81.8 36.4 96.7 73.6 24.2 60.7-4.9 130.5-67.9 154.6-14 5.4-28.6 8-43.7 7.6-2.8-.1-4.8.8-6.8 2.7-7.5 6.8-15.7 12.6-24.6 17.4-13 7-27 10.8-41.6 12-2.7.2-5.4.4-8.1.7-.2 0-.6.3-.6.6 0 .2.2.6.5.7.7.4 1.4.7 2.2 1 25.6 10.8 44 29.2 56.4 53.8 3 6 5.7 12.2 7.8 18.6.5 1.5.9 3.1 1.2 4.6.4 2.1-.6 3.1-2.6 2.9-1-.1-1.9-.2-2.9-.4-21.3-3.7-40.9-11.5-57.9-25-9.1-7.2-16.6-15.9-22.9-25.7-.7-1.1-1.3-2.2-2.1-3.2-.4-.6-.7-1.8-1.5-1.6-1 .2-.5 1.3-.4 2 .5 3.8.6 7.7.7 11.5.5 13.8-1.7 27.1-6.6 40-5.8 15.3-14.3 28.9-25.2 41.1-1 1.1-2 2.1-3 3.1-1.8 1.6-3.3 1.4-4.2-.8-1.4-3.6-2.8-7.1-3.9-10.8-2.2-7.5-3.8-15.2-4.7-23-2.7-22.9 1.2-44.6 12.1-65 .5-1 1.1-2 1.6-3 0 0-.2-.3-.2-.3z" fill="#524e43"/><path d="m1275.4 607c1.5.6 2.4-.7 3.3-1.4 6.6-4.8 13.6-9 21.1-12.3 1.8-.8 3.6-1.4 5.3-2.2 1.6-.7 1.8-1.4.4-2.3-5.9-3.8-11.5-8.1-16.7-12.8-.7-.6-1.4-.3-1.8.7-.1.5-.2.9-.3 1.4-2.3 9.2-5.7 18-10.1 26.4-.4.8-.7 1.8-1.1 2.6-.2.6-.5-.2-.2.3 0 .1.2.2.2.2.2-.2.2-.4-.1-.6z" fill="#e26d56"/><path d="m1003.9 507.4c-.7 0-1.1-.5-1.5-1-.9-1.1-1.7-2.3-2.7-3.3-3.4-3.3-7.5-3.9-11.9-2.5-1.2.4-1.5 1.1-.8 2.2 2.2 3.3 4.9 5.9 9.1 6.1 2.7.1 5.4-.1 7.8-1.6-.1 2.4-.7 4.7-1.1 7-1.1 5.2.7 9.5 4.6 12.8 3.8 3.1 8.2 4.1 13 2.4 10.1-3.6 12.5-16.3 4.3-23.2-1-.8-2.1-1.5-3-2.3-.6-.6-.7-1.5-.1-2.2 1-1 2.2-1.9 3.2-2.9 3.2-3.3 4.2-8.3 2.5-12.4-.3-.6-.8-1.1-1.5-.7-3.8 2.2-6.5 5.2-6.6 9.8 0 1.3.2 2.5.3 3.8.4 3.3-.2 3.9-3.6 3.7-.5 0-1 0-1.4-.1-1.4-.2-2-.9-2-2.2 0-.8.2-1.6.3-2.4.3-4.8-2.2-8.2-6-10.7-.7-.5-1.6-.2-1.9.7-1.6 4.8-1.3 9.2 2.5 12.8 2.4 2.3 2.1 3.3-.4 5.3-.6.5-1.3.9-2 1.3-.3.2-.8 0-1.1-.4z" fill="#915d56"/><path d="m1238.5 464.6c-1.6-13.9-4.6-24.9-9.5-35.7-25.6-56.6-89.9-81.6-146-59.8-38.4 15-71.7 53-72.7 105.3 0 1.1-.1 2.3.3 3.3 1.4 3.9 3 7.8 4.5 11.6.3.7 1.1.8 1.5.3.5-.6.9-1.3 1.4-2 2.3-3 5.1-5.3 8.6-6.6 1.5-.6 2.6-.2 3.2 1.2 2.6 6.4 3.4 12.7-1.5 18.5-.3.4-.6.7-.9 1.1-.4.6-.5 1.1 0 1.7s1.1 1.1 1.6 1.8c6.2 7.5 5.7 17.5-1.3 24.2-.6.6-1.2 1-1.8 1.6-.5.5-.6 1.1-.3 1.7.5 1 1.1 1.9 1.7 2.9 14.2 22.6 33.8 38.6 59 47.6 22 7.8 44.4 8.7 67 2.9 3.4-.9 6.7-2 10.1-3.1 1.8-.6 2-1.3 1.2-2.8-.5-.8-1-1.6-1.4-2.5-4-7.1-7.4-14.5-10-22.3-.7-2-1.3-3.9-1.8-6-.5-1.9.5-3.1 2.5-3.1 1.3 0 2.5.2 3.8.4 7.6 1.2 15 3.2 22.2 5.8 6.2 2.2 12.2 4.8 18 7.9 1.3.7 2.4.6 3.5-.4 2-2 4-4.1 6.2-6 2.4-2.1 2.7-4 1.3-7-4.2-8.4 1.9-19.4 12-19.9 1.1-.1 2.3-.2 3.3 0 1.9.4 2.6-.5 3.3-2 .3-.7.7-1.4 1-2.2 9-19.1 12-39.4 10-58.4z" fill="#ffdbc2"/><path d="m1255.3 503c.8 5 1.9 11.4 3.7 17.5.3.9.2 2.2 1.2 2.4 1.4.4 1.6-1.2 2.3-2 1.3-1.6 2.3-3.5 3.7-5 2-2.2 3-4.4 1.9-7.4-.4-1-.4-2.2-.6-3.3-1.4-8.6-1.7-17.2-.9-25.8 4.7-54.8 53.8-99.2 113.9-92.6 52.5 5.8 92.7 51 90.9 105.4-.8 24.4-9.3 45.9-25.4 64.3-15.9 18-35.7 29.2-59.5 33.4-2.2.4-4.4.7-6.6 1-1.7.2-2.9.9-4 2.3-2 2.5-4.1 4.9-6.1 7.4-.5.6-1.3 1.1-1.1 2 .3 1 1.4.6 2.1.6 11.6 0 22.9-2.1 33.9-5.7 59.7-19.8 93.5-84.5 72.1-146-20.6-59.4-84.1-90.1-143-71.3-47.9 15.1-84.7 62.8-78.5 122.8z" fill="#e08a4f"/><path d="m1250.6 221.3c-11.2 1.3-20 3.4-30.1 7.6-24.8 10.3-43.9 27.1-57 50.6-9.8 17.7-14.5 36.8-14.3 57 .1 7.2 1.1 14.3 2.3 21.4.3 1.6 1.1 2.5 2.7 3 2.9.8 5.8 1.7 8.8 2.5 1.3.4 1.7-.1 1.5-1.5-.2-1.1-.4-2.2-.7-3.3-2.8-11.3-3.6-22.7-2.4-34.3 6.1-57.3 56.4-97.7 112.8-91.8 64.7 6.8 104.9 69.4 88.3 129.5-.7 2.6-2.7 5.1-1.7 8.1 2.8.7 5.7.1 8.6.1 2.8 0 2.8-.1 3.6-2.8.2-.6.4-1.2.5-1.8 6.3-22.8 5.9-45.5-1.9-68-18.6-54.2-71.9-82.5-121-76.3z" fill="#e08a4f"/><path d="m1123.7 260.9c.1-.8.1-1.6.2-2.4.1-.6.3-1.3-.4-1.7-.3-.1-.9.2-1.3.5-.8.5-1.5 1.1-2.3 1.7-40.6 31.9-81.2 63.7-121.9 95.6-1.1.9-2.3 1.8-3.3 2.8-5.8 5.5-7.5 13.8-4.4 21.2 3.7 8.9 13.9 13.7 22.9 11 11.9-3.6 17.6-17.6 11-28.3-2.2-3.6-2.1-3.6 1.1-6.2.4-.3.8-.6 1.1-.9 20.9-16.4 41.8-32.7 62.6-49.1 11.8-9.3 23.7-18.5 35.5-27.8 2.8-2.2 2.4-2.2 1.2-4.7-1.4-3.8-2.4-7.6-2-11.7z" fill="#a85d4e"/><g fill="#f9a66e"><path d="m1361.7 323.9c-1.3-10.4-3.9-20.1-8-29.4-1.7-3.8-1.7-3.8-5.5-1.8-24.9 13-49.8 26.1-74.7 39.2-1.1.6-3.2.8-3 2.4.2 1.2 2.1 1.1 3.3 1.5 26.8 8.4 53.7 16.8 80.5 25.3.9.3 1.8.6 2.8.8.7.2 1.3-.1 1.5-.8.4-1.1.7-2.1.9-3.2 2.8-11.3 3.4-22.7 2.2-34z"/><path d="m1252.3 236.8c-9.7.9-19.5 3.7-28.9 7.9-3.8 1.7-3.8 1.7-1.8 5.5 13 24.9 26 49.8 39.1 74.7.6 1.2.8 3.3 2.5 3 1.1-.2 1.1-2.1 1.5-3.3 8.4-26.8 16.8-53.6 25.2-80.5.3-.9.6-1.8.8-2.8.2-.7-.2-1.3-.8-1.5-1-.4-2.1-.7-3.2-1-11.2-2.6-22.4-3.5-34.4-2z"/><path d="m1376.3 491.2c-.8.2-1.4.1-1.4.7 0 .3.1.6.3.9l1.2 1.5c19.2 21.3 38.3 42.6 57.5 63.8.3.4.6.7 1 1.1 1.3 1.3 1.7 1.3 3.2-.1.6-.5 1.1-1.1 1.7-1.7 10.6-11 18.3-23.8 23-38.3 2-6.3 3.4-12.7 4.1-19.2.4-3.7.2-3.9-3.3-4.1-5.7-.3-11.5-.6-17.2-.9-18.4-1-36.7-1.9-55.1-2.9-5.1-.3-10.2-.6-15-.8z"/><path d="m1361.6 486.4c.5-.1 1-.2 1.1-.7 0-.4-.2-.9-.5-1.3-.4-.5-.8-1-1.2-1.5-18.9-21-37.9-42.1-56.8-63.1-.6-.7-1.3-1.4-2-2-.5-.5-1.2-.5-1.7 0-.7.6-1.4 1.3-2.1 2-11.4 11.7-19.4 25.3-24.1 40.9-1.8 6-3 12.1-3.6 18.3-.2 2.1.3 2.6 2.3 2.7 7.8.4 15.6.8 23.5 1.2 16.8.9 33.5 1.8 50.3 2.7 4.9.3 9.8.6 14.8.8z"/><path d="m1357.9 390.8c-18.8 2.1-35.4 9-50.1 20.5-3.8 3-3.6 2.6-.5 6.1 18.7 20.8 37.5 41.6 56.2 62.4.7.8 1.5 1.6 2.3 2.4.5.5 1.4.1 1.4-.6.3-4.1.5-8.3.8-12.4 1.2-22.8 2.4-45.7 3.6-68.5.1-2.9.2-5.7.3-8.6 0-1.1-.6-1.7-1.7-1.8-4.3-.5-8.4.2-12.3.5z"/><path d="m1466.6 476c-1.9-17-8.8-33.6-20.3-48.2-3.1-3.9-2.7-3.7-6.1-.6-20.9 18.8-41.8 37.6-62.7 56.4-.7.6-1.4 1.3-2.1 2-.2.2-.4.6-.4.8.1.5.5.8 1 .8 4 .2 8 .4 12 .7 20.7 1.1 41.4 2.2 62.2 3.3 4.9.3 9.9.5 14.8.7 1.8.1 2.2-.4 2.3-2.2.4-4.1-.1-8.1-.7-13.7z"/><path d="m1382.4 586.5c10.4-1.3 19.5-4.2 28.2-8.3 7.6-3.5 14.6-8 21-13.3 1.5-1.2 1.5-1.6.2-3.1-3.2-3.6-6.4-7.1-9.6-10.7-15.9-17.7-31.9-35.4-47.8-53.1-.8-.9-1.8-1.8-2.7-2.7-.5-.4-1 0-1.1.5-.2.8-.2 1.6-.2 2.4-1.3 24.3-2.6 48.5-3.9 72.8-.2 4.1-.5 8.3-.6 12.5-.1 1.8.3 2.1 2.1 2.6 5 1 10 1.5 14.4.4z"/><path d="m1165.8 349.1c.3 3.2 1.7 9.2 3.6 15.2.4 1.3 1.2 2.1 2.4 2.7 3.5 1.6 7 3.3 10.3 5.1 2 1.2 3.7 1.2 5.8 0 6.4-3.5 13-6.8 19.5-10.3 15.4-8.1 30.9-16.1 46.3-24.2 1.1-.6 2.2-1.3 3.3-2 .4-.2.3-.6-.1-.7-1-.4-2-.9-3.1-1.2-27-8.5-54-16.9-80.9-25.3-.9-.3-1.8-.6-2.8-.8-.8-.2-1.2.3-1.4.9-.4 1.1-.7 2.1-1 3.2-2.7 11.3-3.5 22.8-1.9 37.4z"/><path d="m1371.2 480.3v.9c.1.5.1 1.1.4 1.3.6.4 1.2-.1 1.6-.5 3.3-3 6.7-6 10-9 17.9-16.2 35.9-32.3 53.8-48.5.9-.9 1.9-1.7 2.8-2.7.4-.4.3-.9 0-1.3-.6-.8-1.2-1.5-1.9-2.1-10.8-10.6-23.3-18.3-37.7-23.2-7-2.4-14.2-3.9-21.5-4.7-2.4-.2-2.9.2-3 2.5-.3 5.7-.6 11.5-.9 17.2-.9 16.6-1.7 33.2-2.6 49.8-.3 7-.6 13.9-1 20.3z"/><path d="m1268.7 329.8c.8-.4 1.8-.9 2.8-1.4 24.8-13 49.6-25.9 74.3-38.9.8-.4 1.7-.9 2.5-1.4 1.3-.8 1.4-1.2.6-2.7-.3-.6-.6-1.1-1-1.7-11.7-19.2-28.1-32.9-49.1-41.1-3.9-1.5-3.8-1.9-5.2 2.5-8.4 27-16.9 54-25.3 81-.3.9-.5 1.8-.7 2.8-.1.7.4.9 1.1.9z"/><path d="m1215.6 248.8c-.3.1-.5.1-.6.1-1 .5-2 1-2.9 1.6-19 11.8-32.5 28.1-40.6 48.9-1.6 4.1-1.6 3.8 2.6 5.2 26.8 8.4 53.7 16.8 80.5 25.2 1.2.4 2.8 1.8 3.9.4.7-.9-.7-2.3-1.3-3.4-13-24.9-26-49.8-39.1-74.8-.4-.8-.9-1.7-1.4-2.5-.3-.3-.8-.4-1.1-.7z"/><path d="m1366.4 496.7c-.1-1.1-.1-1.7-.6-1.8-.4 0-.9.2-1.2.5-.6.5-1.2 1-1.8 1.6-20.9 18.8-41.8 37.6-62.7 56.4-.7.6-1.4 1.3-2.1 2s-.6 1.4.1 2.1c.3.4.7.7 1 1 11.8 11.7 25.6 20 41.5 24.8 1.4.4 2.8.7 4.2.7 4.9.2 9.9.5 14.8.7 1.7.1 2.1-.3 2.3-2.2.3-5.3.6-10.5.9-15.8 1-18.6 2-37.3 2.9-56 .2-4.8.5-9.7.7-14z"/></g><path d="m1165.5 260.2c-.2-1-.3-2.1-.7-3.1-1.8-5.1-2.1-5-6-1.8-.6.5-1.3 1-1.9 1.5-35.7 28-71.5 56-107.2 84.1-6.8 5.3-13.6 10.6-20.4 16-2 1.6-2 1.7-.9 4 1.8 3.8 2.7 7.8 2.4 12.1-.1 1.2-1 3 0 3.6 1.3.8 2.4-1 3.5-1.8 40.8-31.9 81.6-63.9 122.3-95.9 1-.8 2-1.6 3-2.4 4.5-4.5 6.4-9.9 5.9-16.3z" fill="#ba6f5d"/><path d="m1288.4 537.5c.1 1.1.7 3.4.6 5.6-.2 3.7 1.7 6.4 4 8.9.9 1 1.5 1.1 2.4.2 3.4-3 6.7-6 10-9 18.1-16.2 36.1-32.5 54.2-48.8.9-.9 1.9-1.7 2.7-2.7.4-.4 0-.9-.4-1.1s-.9-.2-1.4-.3c-8.1-.4-16.3-.8-24.4-1.2-16.4-.9-32.9-1.8-49.3-2.6-4.8-.3-9.6-.5-14.4-.7-1.8-.1-2.3.4-2.3 2.3-.1 6.2.5 12.4 1.7 18.6.1.7.9 1 1.4.6.3-.2.5-.4.7-.6 4.7-4.3 5.3-4.1 7.5 1.9.1.1.1.3.2.5 3.2 8.8 5.4 17.9 6.8 28.4z" fill="#f9a66e"/><path d="m1261.9 433.5c1.6.1 2.4-.3 2.9-1.2.4-.7.8-1.4 1.2-2.1 6.6-11.5 14.9-21.6 24.8-30.3.5-.4 1-.8 1.4-1.3 1.4-1.4 1.5-1.6.7-3.3-1.6-3.1-3.2-6.2-4.9-9.4-7-13.5-14.1-26.9-21.1-40.4-.7-1.3-1.4-2.5-2.1-3.8-.1-.2-.5-.5-.8-.5-.2 0-.5.4-.6.6-.4 1.2-.9 2.4-1.3 3.6-8.3 26.4-16.5 52.8-24.8 79.1-.3 1.1-.6 2.1-.9 3.2-.3 1.2.2 1.8 1.3 2.1 8.2 2.5 16.4 3.5 24.2 3.7z" fill="#f9a66e"/><path d="m1232.7 425.2c.2-.2.5-.4.6-.7.3-.9.6-1.8.9-2.7 8.2-26.1 16.4-52.2 24.5-78.3.3-.9.5-1.8.7-2.8.1-.2-.1-.6-.3-.8s-.6-.2-.8-.1c-.9.4-1.7.8-2.6 1.2-21.1 11-42.2 22.1-63.3 33.1-.7.4-1.4.8-2.1 1.2-.7.5-.6 1.1 0 1.5.7.6 1.5 1.2 2.3 1.7 16.2 11.5 28.9 26.1 37.9 43.9.4.9.9 1.7 1.4 2.5.1.4.4.5.8.3z" fill="#f9a66e"/><path d="m1236.2 539.7c1.6 10.4-8.7 19.3-18.9 15.4-2.9-1.1-4.6-.9-6.4 1.5-1.3 1.8-3.1 3.2-4.7 4.8-.5.5-.9.9-1.4 1.3-.7.7-.6 1.4.2 1.9.4.3.8.5 1.2.8 13.7 8.8 24.5 20.4 33.1 34.2.5.8 1 1.6 1.6 2.4.1.2.6.3.8.2s.4-.5.3-.7c-.2-2.1-.4-4.1-.6-6.2-.7-8.2-.4-16.3.7-24.4 1.8-13.3 6.3-25.8 12.8-37.4 1.8-3.1 2.3-5.9 1-9.4-2.3-6.2-3.5-12.6-4.4-19.1-2-15.7-1.1-31.3 3-46.6.3-1.2.6-2.5 1-3.7.3-1 0-1.5-1-1.7-4-.5-7.9-1.1-11.9-1.6-1.7-.2-2.1.2-1.8 1.8 1.2 6 1.8 12 2 18.1.7 18.7-2.9 36.6-10.6 53.6-.5 1-.9 2-1.4 3-.6 1.2-.4 2.1.6 2.9 2.8 2.3 4.5 5.4 4.8 8.9z" fill="#e26d56"/><path d="m1297.4 393.9c.3-.1.7-.1.9-.2 1.2-.8 2.4-1.6 3.6-2.4 13.4-9.1 27.9-15.4 43.9-18.4 2.7-.5 5.3-1 8-1.4.8-.1 1.5-.5 1.9-1.3 1.7-3 1.3-3.9-2.2-5-.8-.2-1.5-.5-2.3-.7-21.5-6.7-43-13.5-64.5-20.2-5.6-1.8-11.3-3.5-16.9-5.2-.4-.1-1-.4-1.2.3-.1.3-.1.6 0 .9.2.6.5 1.2.8 1.7 8.7 16.6 17.3 33.1 26 49.7.4.7.8 1.4 1.2 2.1.2-.1.6 0 .8.1z" fill="#f9a66e"/><path d="m1284.6 539.6c-.6-6.8-1.9-13.2-3.6-19.6-.9-3.2-2-6.4-3.1-9.6-.3-.8-.9-.8-1.5-.4-.5.4-.9.9-1.4 1.3-4.7 5.3-8.8 11-12.6 16.9-17.6 27.6-21.4 57.4-13.4 88.9.7 2.9.9 2.9 3.8 3.2 1.3.1 2.5.4 3.8.6 1.2.2 2.3 1.6 3.5.9 1-.6 1.7-1.8 2.5-2.8 1.2-1.5 2.3-3.1 3.3-4.7 15.3-22.7 22.4-47.5 18.7-74.7z" fill="#e07e3b"/><path d="m1259.2 668.2c-1-6.1-1.8-12.3-3.6-18.3-.3-1.1-.9-1.6-2-1.6-2.3.2-4.4-.2-6.6-1-2.5-.9-2.6-.9-4.2 1.4-7.1 9.6-12.8 19.8-17 31-4.6 12.3-6.5 25-6.2 38.1.2 8.9 1.5 17.5 3.4 26.1 1.1 4.7 2.3 9.3 4.2 13.7.4.9 1.2 1 1.9.3.8-.8 1.5-1.6 2.2-2.5 5.9-7 11.1-14.5 15.5-22.5 11-20.1 15.2-41.7 12.4-64.7z" fill="#e07e3b"/><path d="m1158.3 551c-1.7-.1-2.2.5-1.8 1.8 1.7 4.3 3.2 8.7 5.2 12.9 5.9 13.1 13.7 24.9 23.9 35 14.2 14.1 31.5 22.7 50.6 28.1.3.1.6.1.9.2 1 .2 1.9 0 2.4-1 1.1-2 2.5-3.7 4.4-5 1.7-1.2 2.1-1.4 1-4-2.8-6.5-6.1-12.7-9.9-18.6-8.2-12.8-18.5-23.6-31.4-31.8-13.5-8.6-28.2-14.1-43.9-17.3-.6-.2-1.2-.2-1.4-.3z" fill="#e07e3b"/><path d="m1348.6 715.7c-1.2-3-2.2-6-3.5-8.9-4.2-10.2-9.7-19.8-16.4-28.6-15.3-20-35.8-31.9-59.7-38.6-2.9-.8-3-.8-4.8 2-1.1 1.6-2.3 3-3.9 4.2-.9.7-1.1 1.4-.6 2.5 2 4.9 4.4 9.6 7 14.2 11.8 20.8 28.6 36.3 50.6 45.8 8.5 3.7 17.3 6.6 26.4 8.4 1.1.2 2.2.4 3.3.6 1.3.3 1.8-.3 1.6-1.6z" fill="#e07e3b"/><path d="m1170.4 679.8c8-.8 16.1-2.3 24-4.9 17.2-5.7 31.7-15.7 44.5-28.3.5-.4.9-.9 1.3-1.4.8-.9 1.1-1.8.3-3-1.2-1.7-2-3.6-2.2-5.8-.2-2.4-.3-3-3.7-3.2-5.6-.5-11.1-.6-16.7-.5-13.4.3-26.4 2.9-38.7 8.1-17.8 7.6-32.5 19.5-45 34.2-.3.4-.6.8-.8 1.2-.4.7-.3 1.2.5 1.5 1.1.3 2.2.5 3.3.7 10.9 1.9 21.9 2.2 33.2 1.4z" fill="#e07e3b"/><path d="m1332.5 588.8c-8.6.8-16.8 2.6-24.8 5.6-16 5.9-29.7 15.5-41.8 27.4-.7.7-1.3 1.4-1.9 2.1-.7.8-.8 1.7-.2 2.6 1.1 1.8 1.8 3.7 2.2 5.8.3 2.2.6 2.3 2.8 2.5 4.9.5 9.9.8 14.8.7 14.2-.1 28-2.3 41.2-7.8 18.1-7.6 32.9-19.5 45.6-34.2.4-.5.8-1 1.1-1.5.3-.6.3-1.3-.5-1.5-1.2-.3-2.5-.5-3.8-.7-11.5-1.9-23.1-2.3-34.7-1z" fill="#e07e3b"/><path d="m1314.1 588.2c4.9-1.7 10-2.1 15-3.1.1 0 .2-.2.4-.3.3-.3.4-.6.1-.8-1.1-.6-2.2-1.3-3.3-1.8-10.4-4.7-19.7-11.2-28.1-19-2.7-2.5-4.8-5.5-7.8-7.7-.1 0-.4.1-.4.2-.4 3.6-.8 7.2-1.2 10.8-.1.5-.1 1-.1 1.4-.1 1.2.1 2.2 1 3 6.6 6.4 13.8 11.9 21.8 16.5.7.7 1.6 1 2.6.8z" fill="#e08a4f"/><path d="m1232.5 540.5c-.6-5.9-5.8-10-11.7-9.3s-10.1 6.1-9.3 11.8c.7 5.5 6 9.7 11.6 9.2 5.7-.5 10-5.9 9.4-11.7z" fill="#f79e92"/><path d="m1255.5 448.9c.9 0 1.7 0 2.1-.9 1.3-3.1 2.6-6.1 3.8-9.2.2-.5-.1-1-.6-1.1-.9-.2-1.9-.3-2.8-.4-5.4-.2-10.7-1.1-16.1-2.1-1.9-.4-3.8-1.6-5.9-.7 0 1.9.9 3.6 1.4 5.4.4 1.5.9 3 1.3 4.6.4 1.4 1.1 2.1 2.6 2.4 4.8 1 9.5 1.5 14.2 2z" fill="#e08a4f"/><path d="m989.9 447.2c.2.7.4 1.3.6 1.9 2 7.2 4.1 14.4 6.1 21.6 1.3 4.6 2.7 9.2 4 13.8.3 1 1.1 1.2 1.6.2 1.1-2.2 2.7-2.5 4.7-1.5.1.1.3 0 .5.1.7 0 .7-.5.7-.9-.1-.6-.3-1.2-.5-1.8-4.2-10.9-8.4-21.7-12.6-32.5-.4-1-.6-2.2-1.5-2.9-.7-.5-1.4-.7-2.2-.4-.6.2-1.1.7-1.2 1.4-.2.1-.2.6-.2 1z" fill="#9b7a75"/><path d="m1251 624.4c-5.5.6-9.4 5.6-8.8 11.1.6 5.4 5.7 9.5 11.1 8.9s9.4-5.8 8.8-11.2c-.6-5.5-5.6-9.4-11.1-8.8z" fill="#e07e3b"/><path d="m1104.6 655.8c1.3 8.2-5.2 15.1-12.3 16-7.3.9-15.1-3.9-16.2-12.7-.9-7.8 4.8-14.9 12.7-15.8 7.8-.9 14.8 4.6 15.8 12.5z" fill="#524e43"/><path d="m1100.8 656.3c-.7-5.8-6.1-10.1-11.8-9.3-5.6.7-9.7 5.9-9.2 11.5.5 5.7 5.9 10.1 11.7 9.5 5.9-.6 10-5.8 9.3-11.7z" fill="#f79e92"/><path d="m1461.5 333c-.9-6.4 3.3-14.6 12.7-15.8 7.8-1 15 4.8 15.9 12.6.8 6.7-3.2 14.9-13 16-8 .9-14.8-4.9-15.6-12.8z" fill="#524e43"/><path d="m1474.5 321c-5.8.7-10 6-9.3 11.9.7 5.7 5.8 9.8 11.4 9.2 5.7-.5 10.2-5.9 9.6-11.7-.4-5.7-5.9-10.1-11.7-9.4z" fill="#f79e92"/><path d="m1425.1 348.5c-8 .8-14.8-4.7-15.6-12.7-.8-7.9 4.7-14.9 12.6-15.8 6.5-.8 14.7 3.2 15.9 12.6 1.2 9.7-6.5 15.6-12.9 15.9z" fill="#524e43"/><path d="m1425 344.7c5.8-.7 10.1-6.1 9.3-11.9-.8-5.7-6.4-9.9-12.1-9.1-5.6.8-9.6 6-9 11.7.7 5.9 5.9 10.1 11.8 9.3z" fill="#f79e92"/><path d="m1413 650.7c1.1 6.5-3.5 14.8-12.4 15.9-8.1 1-15.2-4.6-16.1-12.8-.8-7.9 4.8-14.9 12.7-15.7 7.9-.9 14.9 4.7 15.8 12.6z" fill="#524e43"/><path d="m1409.3 651.4c-.6-5.9-5.7-10.2-11.6-9.6-5.8.6-10.1 6-9.5 11.7.6 5.6 5.7 9.8 11.4 9.3 5.9-.4 10.3-5.5 9.7-11.4z" fill="#f79e92"/><path d="m1464.2 367.3c4.8-.7 9.2 2.7 9.9 7.5.7 4.9-2.6 9.3-7.4 10s-9.2-2.7-9.8-7.5c-.7-4.9 2.5-9.3 7.3-10z" fill="#524e43"/><path d="m1460.6 376.6c.3 2.6 2.7 4.6 5.3 4.3 2.8-.2 4.9-2.8 4.5-5.6-.3-2.5-2.8-4.5-5.3-4.4-2.8.3-4.9 3-4.5 5.7z" fill="#f79e92"/><path d="m1097.4 618.9c.4 4.9-3.1 9.1-8 9.5s-9-3.2-9.4-8.1 3.2-9.1 8-9.5c4.9-.4 9 3.1 9.4 8.1z" fill="#524e43"/><path d="m1093.6 619.2c-.2-2.7-2.5-4.7-5.2-4.6-2.9.2-5 2.7-4.6 5.6.3 2.6 2.8 4.6 5.4 4.4 2.7-.3 4.7-2.7 4.4-5.4z" fill="#f79e92"/><path d="m1057.8 623c.6 4.7-3 9.2-7.7 9.8-4.8.6-9.3-2.9-9.9-7.7-.6-4.7 2.9-9.2 7.7-9.8 4.8-.5 9.3 3 9.9 7.7z" fill="#524e43"/><path d="m1054 623.3c-.5-2.7-3.3-4.6-6-4.1-2.6.5-4.4 3.1-4 5.6.5 2.7 3.4 4.7 6 4.1 2.5-.4 4.4-3.1 4-5.6z" fill="#f79e92"/><path d="m389.7 798.8c-66.9 7-123.5-40.6-130.9-104-7.3-63.3 36.8-123.4 104.1-131.1s123.8 41.2 130.9 104.3c7 62.1-36.2 122.4-104.1 130.8z" fill="#524e43"/><path d="m389.1 794.8c64.2-7.6 107.5-65 100.8-126.2-6.6-60.3-60.5-108.4-126.4-101-64.8 7.3-107.6 64.8-100.8 126.1 7.1 63.6 63.7 107.9 126.4 101.1z" fill="#e08a4f"/><path d="m396.7 842.6c-8.7-3-14.4-9-15.8-18.2-1.4-9.3 1.9-17 9.6-22.5 1.2-.8 2.5-1.5 3.7-2.2 18.7-9.8 37.4-19.6 56.1-29.3 31.8-16.6 63.5-33.1 95.3-49.7.9-.4 1.7-.9 2.6-1.3 1.3-.6 2.5-.3 2.9.6.4 1.1-.1 1.9-.9 2.5-1 .8-2.1 1.4-3.1 2.3-5.8 5.1-7.9 11.4-6.3 19 .5 2.2 1 2.5 2.9 1.5 1.9-.9 3.7-1.9 5.6-2.8 8.2-4.3 16.4-8.6 24.7-12.9.8-.4 1.7-.9 2.6-1.3 1.7-.7 2.7-.3 3.5 1.3 3 6.5 3 13 0 19.5-2.3 5-6.1 8.5-10.9 11-13.2 6.8-26.4 13.8-39.5 20.7-12.8 6.7-25.5 13.3-38.3 19.9-25.2 13.2-50.5 26.4-75.7 39.6-4 2.1-8.2 3.5-12.8 3.4-2.2-.1-4.2-.5-6.2-1.1z" fill="#524e43"/><path d="m397.7 839c1.6.5 3.1.8 4.7.8 14.3.6 23.6-13.4 18.8-25.8-1.4-3.7-1.4-4 2.2-5.9.9-.4 1.7-.9 2.5-1.3 16.9-8.8 33.7-17.6 50.6-26.4 12.6-6.6 25.2-13.1 37.9-19.7 6.8-3.5 13.6-7.1 20.4-10.7 3.6-1.9 3.3-1.8 2.4-5-1.1-4.1-1-8.2.3-12.3.2-.8.5-1.5.7-2.3.1-.2-.1-.6-.3-.8-.2-.1-.6-.2-.9-.1-.9.4-1.7.8-2.6 1.3-29.5 15.4-58.9 30.8-88.4 46.2-13 6.8-26.1 13.6-39.1 20.4-4.5 2.4-9.2 4.6-13.5 7.2-6.9 4.3-9.9 10.8-8.8 18.8 1.1 7.8 5.7 12.9 13.1 15.6z" fill="#a85d4e"/><path d="m577.8 744.9c.9-3.6 1.1-7.2 0-10.9-.4-1.2-1-1.5-2.1-1.1-.9.4-1.7.8-2.6 1.3-19.4 10.1-38.8 20.3-58.2 30.4-12.9 6.7-25.8 13.4-38.7 20.2-16.4 8.6-32.9 17.2-49.3 25.8-2 1.1-2.2 1.2-1.5 3.3 1.4 4.9 1.2 9.8-.4 14.6-.1.3-.2.6-.3.9 0 .3-.1.7.1.9s.6.2.9.1c1-.4 2-.9 3-1.4 24.5-12.8 49-25.6 73.6-38.4 21.1-11 42.2-22 63.3-33.1 1.6-.8 3.1-1.6 4.6-2.6 3.7-2.2 6-5.8 7.6-10z" fill="#ba6f5d"/><path d="m582.4 658.6c1.1 6.7-3.8 14.8-12.6 15.7-7.9.8-15-4.7-15.9-12.5-.9-8.1 4.5-15.2 12.9-16 9-.9 15.3 5.9 15.6 12.8z" fill="#524e43"/><path d="m578.7 659c-.2-4.7-4.6-10.3-11.7-9.4-6.8.8-9.9 6.5-9.3 11.8.6 5.6 5.8 9.7 11.5 9.2 6-.6 10.2-5.7 9.5-11.6z" fill="#f79e92"/><path d="m523.5 620.4c7.9-.9 14.9 4.7 15.9 12.5.9 7.8-4.6 15-12.5 16-8 1-15.2-4.7-16.1-12.8-.8-7.9 4.7-14.8 12.7-15.7z" fill="#524e43"/><path d="m523.8 624.2c-5.9.7-10 6-9.2 11.8.8 5.6 5.9 9.7 11.5 9.1 5.8-.6 10.2-6 9.5-11.7-.6-5.7-5.9-9.9-11.8-9.2z" fill="#f79e92"/><path d="m302.9 812c7.8-.9 15 4.8 15.9 12.6s-4.7 15-12.5 16c-8.1 1-15.2-4.6-16.1-12.8-.8-8 4.8-14.9 12.7-15.8z" fill="#524e43"/><path d="m294 827.5c.7 5.8 6 10 11.8 9.3 5.5-.7 9.7-5.9 9.3-11.5-.5-5.7-6-10.2-11.7-9.6-5.8.6-10.1 5.9-9.4 11.8z" fill="#f79e92"/><path d="m329.9 866.3c-4.6.7-9.1-2.5-9.7-7.7-.6-4.8 2.9-9.1 7.8-9.6s9.2 2.9 9.7 7.7c.4 3.9-2.1 9.2-7.8 9.6z" fill="#524e43"/><path d="m329.3 862.6c2.7-.2 4.7-2.5 4.6-5.2s-2.9-5-5.6-4.7-4.6 2.8-4.3 5.4c.3 2.8 2.6 4.7 5.3 4.5z" fill="#f79e92"/><path d="m520.9 680.3c-4.6.7-9.1-2.5-9.7-7.7-.6-4.8 2.9-9.1 7.8-9.6s9.2 2.9 9.7 7.7c.5 3.9-2 9.2-7.8 9.6z" fill="#524e43"/><path d="m520.4 676.6c2.7-.2 4.7-2.5 4.6-5.2s-2.9-5-5.6-4.7-4.6 2.8-4.3 5.4c.2 2.8 2.6 4.7 5.3 4.5z" fill="#f79e92"/><path d="m352 829.1c4.8-.4 9.1 3.2 9.6 8 .4 4.8-3.2 9.2-8 9.6s-9.2-3.3-9.6-8c-.4-4.8 3.3-9.2 8-9.6z" fill="#524e43"/><path d="m353.5 842.8c2.5-.4 4.5-2.9 4.3-5.5-.2-2.7-3.1-4.9-5.7-4.5-2.7.4-4.7 3.2-4.2 5.9.6 2.7 3.1 4.5 5.6 4.1z" fill="#f79e92"/><path d="m1138.9 436.1c3.1-.3 6.2 1.1 8.2 4.4 2.1 3.4 2 6.9-.3 10.3-.4.7-1 1.3-1.5 1.8-4.2 4.3-8.9 8.1-13.7 11.8-.6.5-1.4.9-2.2.5-1-.5-1.3-1.3-1.3-2.3.3-6.2.5-12.4 1.7-18.5 1-4.7 3.9-7.4 9.1-8z" fill="#524e43"/><path d="m1144.7 444.8c-.4-2.6-2.5-4.6-4.9-4.8-2.6-.3-5 .9-5.8 3.3-1.5 4.7-2.1 9.6-1.5 14.5.1.9 9.7-6.7 11.3-9.5.7-1.1 1-2.3.9-3.5z" fill="#c65344"/><path d="m1093.9 495.7c-4.9.5-9.2-2.8-10-7.6-.9-5.2 2.1-9.8 7.2-10.7 2.7-.5 5.4-.5 8.1-.5 3.7.1 7.3.4 11 .7.9.1 1.9.4 2.8.7.7.3 1 1.4.6 2.1-.3.5-.7 1.1-1.1 1.5-4 3.9-8 7.8-12.5 11.2-2.7 1.9-3.9 2.4-6.1 2.6z" fill="#524e43"/><path d="m1095.7 480.7c-1.9.2-3.2.2-4.4.5-2 .5-3.2 2-3.6 4-.4 2.2.2 4.1 2 5.5 2 1.5 4.2 1.7 6.2.4 3.8-2.4 7-5.4 10.2-8.6.4-.4.1-1.4-.6-1.4-3.5-.3-7-.6-9.8-.4z" fill="#c65344"/><path d="m1123.3 443.9c.2 5.8-.2 12-.8 18.2 0 .4-.3.9-.5 1.3-.5.7-1.2 1-2.1.6-.3-.1-.6-.3-.8-.5-4.7-4.6-9.2-9.2-13-14.6-2.4-3.5-2.4-7.2-.1-10.7 2.1-3.2 6.3-4.7 10.1-3.8 3.7.9 6.4 4 7 8.2.1.3.1.6.2 1.3z" fill="#524e43"/><path d="m1119.6 444.9c-.1-1.1-.1-1.4-.2-1.7-.4-2.7-2-4.6-4.3-5.1s-4.6.4-5.9 2.3c-1.5 2.3-1.3 4.5.2 6.7 2.4 3.3 5.2 6.5 8.1 9.3.2.2.6.2.9.2.7 0 .7-.6.7-1 .2-3.8.4-7.6.5-10.7z" fill="#c65344"/><path d="m1108.9 470.9c-5.3.2-10.6.2-15.8-.4s-8.5-3.8-8.9-8.5c-.3-3.7 1.1-6.6 4.1-8.7s6.3-2.3 9.5-.6c1.3.7 2.4 1.6 3.5 2.5 4 3.5 7.6 7.3 11.2 11.2.3.4.6.7.9 1.1.8 1.2.3 2.7-1.1 3-1.2.2-2.3.2-3.4.4z" fill="#524e43"/><path d="m1105.2 467.2c.5-.2 1.1-.3 1.2-.6s-.1-1-.3-1.3c-2.7-3-5.5-5.8-8.7-8.3-.5-.4-1-.8-1.6-1-2.9-1.4-6.3 0-7.5 3-1.1 2.8.2 5.9 3.1 7.1.9.3 1.9.5 2.8.6 3.7.2 7.3.4 11 .5z" fill="#c65344"/><path d="m1110.9 515c-3.8.5-7.5-1.2-9.3-4.4-2-3.5-1.9-7 .5-10.3.6-.9 1.4-1.7 2.2-2.5 4-3.9 8.4-7.3 12.9-10.6.8-.6 1.5-1.2 2.6-.7 1.2.6 1.3 1.8 1.2 2.9-.1 1.9-.2 3.8-.4 5.7-.5 4.1-1 8.2-1.7 12.3-.5 2.8-1.9 5-4.4 6.5-1.2.6-2.4.9-3.6 1.1z" fill="#524e43"/><path d="m1110.1 511.3c2.8-.4 4.4-2 5-4.6 1-4 1.3-8.2 1.6-12.3 0-.5-.1-1-.6-1.1-.3-.1-.6.1-.9.2-3.2 2.3-6.3 4.9-9.1 7.8-.6.6-1.1 1.2-1.4 1.9-.9 1.8-.9 3.7.2 5.4 1.2 2 3 2.8 5.2 2.7z" fill="#c65344"/><path d="m1139.4 479.7c5.2.1 11.1.1 16.9 1.1 5 .8 7.9 3.9 8.3 8.5.3 3.7-1 6.6-4.1 8.6-3.2 2.1-6.6 2.2-10 .3-1.2-.7-2.3-1.7-3.3-2.7-3.7-3.5-7-7.4-10.3-11.3-.3-.4-.6-.7-.9-1.1-1.1-1.7-.4-3.1 1.7-3.3.4 0 .7 0 1.7-.1z" fill="#524e43"/><path d="m1160.9 489.5c-.4-2.4-1.8-4.1-4.2-4.6-4.4-1-8.8-1.1-13.3-1.1-.6 0-.9.9-.5 1.5 2.5 3.1 5.2 6 8.2 8.7.5.4 1 .8 1.5 1.1 2 1.2 4 1.1 5.9-.2 1.8-1.3 2.6-3.2 2.4-5.4z" fill="#c65344"/><path d="m1154 473.6c-4.2 0-8.3-.1-12.5-.1-1 0-1.9-.1-2.9-.3-1.8-.3-2.4-1.7-1.4-3.1.2-.3.4-.5.6-.8 4.1-4.3 8.1-8.6 12.8-12.3 1.8-1.5 3.8-2.4 6.1-2.5 4.7-.3 8.8 2.9 9.6 7.6.9 5-1.8 9.5-6.6 10.7-1.8.5-3.8.5-5.7.7z" fill="#524e43"/><path d="m1156 458.4c-.6.1-1.5.4-2.2 1-3.5 2.6-6.5 5.5-9.4 8.7-.2.2-.2.6-.2.9.1.6.6.6 1.1.6 4 .4 7.9.1 11.9-.2.6-.1 1.3-.2 1.9-.4 2.7-.9 4.2-3.7 3.5-6.5-.7-2.7-3.4-4.5-6.6-4.1z" fill="#c65344"/><path d="m1126.5 505.8c-.4-5.8.2-11.3.5-16.9 0-.6.3-1.2.5-1.8.4-.9 1.5-1.3 2.4-.8.4.2.8.5 1.2.8 4.2 4.3 8.5 8.6 12.1 13.5 1.3 1.7 2 3.6 2.1 5.7.2 4.8-3.2 9-8.1 9.6-5 .7-9.3-2.2-10.3-7.1-.2-1-.3-2.1-.4-3z" fill="#524e43"/><path d="m1130.1 504.7c.2 1.3.3 2.5.6 3.7.5 1.9 1.8 3 3.6 3.5 2.1.7 4.6-.1 6-1.9 1.5-2 1.7-4.2.4-6.2-2.4-3.8-5.4-7-8.6-10.1-.4-.4-1.4 0-1.5.5-.3 3.6-.6 7-.5 10.5z" fill="#c65344"/><path d="m1378.5 460.2c.3-5.9.5-12.3 2-18.5 1.8-7.5 10.5-8.7 14.9-5.2 3.8 3.1 4.8 8.4 2.1 12.5-.7 1.1-1.6 2-2.5 2.9-3.9 3.8-8.1 7.2-12.4 10.5-.4.3-.8.6-1.2.8-1.1.6-2.4.1-2.6-1.1-.2-.4-.2-.9-.3-1.9z" fill="#524e43"/><path d="m1395.2 443.6c-.4-2.8-2.4-4.9-4.8-5.2-2.7-.3-5.2 1-6 3.7-1.3 4.3-1.6 8.8-1.6 13.3 0 .7.8 1.2 1.3.8 3.6-2.6 7-5.5 9.9-9 1-1.1 1.3-2.5 1.2-3.6z" fill="#ffdbc2"/><path d="m1305.6 296.7c.2 2.9-.7 5.8-3.5 7.9-1.1.9-2.3 1.7-3.6 2.3-4.3 2.1-8.6 4-13 6-.7.3-1.5.6-2.3.7-1.8.4-3-.7-2.5-2.3 2-6.4 4-12.8 7.3-18.6 2.2-3.8 6.2-5.4 10.2-4.5 4 1 6.8 4.1 7.4 8.5z" fill="#524e43"/><path d="m1287.5 307.9c4-1.7 8.1-3.4 11.9-5.9.3-.2.5-.4.7-.6 2.9-2.9 2.1-7.5-1.7-9.1-2.7-1.1-5.3-.3-7 2.5-2.2 3.7-3.6 7.8-4.9 11.9v.5c-.1.6.3.7 1 .7z" fill="#ffdbc2"/><path d="m1224.4 294.1c3.3-.5 6 .6 8.1 3.1 1.2 1.5 2.3 3.1 3.3 4.7 2.1 3.6 4 7.3 6 10.9.4.7.8 1.4 1 2.2.5 1.3-.5 2.6-2 2.5-.5 0-1 0-1.4-.2-5.6-1.4-11.2-2.8-16.6-4.9-2.4-1-4.5-2.4-5.8-4.8-3-5.9 1.2-13.1 7.4-13.5z" fill="#524e43"/><path d="m1224.9 297.9c-2.5.4-4.2 1.9-4.8 4.3-.6 2.3.3 4.1 2 5.5.6.5 1.3.9 2.1 1.1 3.6 1.2 7.3 2.3 10.9 3.5.3.1.6.1.9 0 .5-.1.9-.5.6-1-1.9-4-4.1-7.9-6.9-11.4-1.2-1.7-2.9-2.4-4.8-2z" fill="#ffdbc2"/><path d="m1348.3 543.1c-3.7.4-6.9-1-9-4.5s-1.9-7 .4-10.3c.6-.9 1.4-1.7 2.2-2.5 3.9-3.8 8.2-7.1 12.5-10.4.5-.4 1.1-.7 1.6-.9 1.1-.5 2.4.3 2.5 1.4 0 .3.1.6.1.9-.4 5.9-.8 11.7-1.9 17.5-.1.8-.3 1.6-.6 2.3-1.1 3.8-3.7 5.9-7.8 6.5z" fill="#524e43"/><path d="m1347.8 539.3c2.7-.2 4.5-1.8 5.1-4.9.7-3.9 1.1-7.9 1.5-11.9 0-.4-.2-1.1-.5-1.2-.4-.1-.9.1-1.3.4-2.8 2.4-5.6 4.7-8.4 7.2-.7.6-1.3 1.4-1.8 2.2-1 1.8-1.1 3.6 0 5.4 1.4 2 3.1 3 5.4 2.8z" fill="#ffdbc2"/><path d="m1328.8 494.8c4.9-.7 9.4-.3 13.8-.5.6 0 1.3.1 1.9.2 1.1.3 1.7 1.6 1.2 2.6-.2.4-.5.8-.8 1.2-3.9 4.4-7.8 8.8-12.3 12.7-2 1.7-4.2 2.8-6.9 2.8-4.8 0-8.9-3.7-9.3-8.5-.4-4.6 2.7-8.9 7.2-9.9 1.8-.4 3.7-.5 5.2-.6z" fill="#524e43"/><path d="m1330.3 498.5c-2.1.2-4.1.3-6.1.8-2.4.6-3.6 2.5-4 4.8-.3 2.1 1.1 4.5 3.2 5.4 2.2 1 4.3.6 6.2-1 3.2-2.6 6.1-5.6 8.8-8.8.5-.6.2-1.3-.5-1.4-2.5-.4-5.1-.1-7.6.2z" fill="#ffdbc2"/><path d="m1309.8 364.2c.5 4.1-1.6 7.9-5.1 9.5-4 1.8-8.6.9-11.3-2.4-.8-1-1.4-2.1-2.1-3.2-2.6-4.8-4.7-9.8-6.7-14.8-.4-.9-.7-1.8 0-2.7s1.7-.9 2.6-.6c6.1 2 12.1 4 17.8 7 3.1 1.6 4.4 3.8 4.8 7.2z" fill="#524e43"/><path d="m1306 364.4c-.1-2-1.5-3.4-3.4-4.4-3.5-1.8-7.2-3.3-11-4.5-.4-.1-1-.3-1.2.3-.2.4-.2 1 0 1.3 1.4 3.5 3 7 4.9 10.3.4.7.9 1.3 1.4 1.9 1.6 1.6 4 1.9 6.2.9 2.1-1 3.3-3.1 3.1-5.8z" fill="#ffdbc2"/><path d="m1279.7 552.8c2.4 21.3-4.9 39.2-18.9 54.8-.4.5-.9.9-1.4 1.3-1.6 1.3-3 1.1-3.8-.9-1.1-2.7-2.1-5.4-2.8-8.1-6.6-24.6-1-46.4 15.6-65.5.7-.8 1.5-1.7 2.3-2.4 1.5-1.3 3.1-1 3.8.8 1.2 3.1 2.3 6.3 3.1 9.5.9 3.6 1.4 7.1 2.1 10.5z" fill="#524e43"/><path d="m1254.6 588.5c.6 3.1 1.1 6.3 1.8 9.4.4 1.7 1 3.4 1.6 5 .2.6.8.6 1.2.3.5-.3 1-.8 1.4-1.3 15.4-18.8 19.2-39.9 12-63-.4-1.2-1.2-1.5-2.1-.5-2.4 2.6-4.4 5.5-6.3 8.5-8.1 12.7-11.5 26.5-9.6 41.6z" fill="#ef8067"/><path d="m1225.1 717.6c-2.7-21.3 4.6-39.2 18.4-54.9 3.3-3.7 4.7-3.4 6.4 1.6 8.3 24.1 5.4 46.5-10.2 67-1.5 2-3.2 4-5 5.8-2.5 2.6-3.9 2.3-5.2-.9-1.4-3.6-2.5-7.2-3.2-11-.4-2.6-.7-5.1-1.2-7.6z" fill="#524e43"/><path d="m1229.2 717.3c.1 1 .2 1.9.3 2.9.5 3.8 1.5 7.5 2.6 11.2.4 1.2 1.2 1.3 2.1.4.2-.2.4-.5.6-.7 14.7-18 19.1-38.2 12.8-60.7-.3-1.1-.7-2.1-1.2-3.1-.2-.5-.8-.5-1.2-.2s-.7.6-1 1c-11.6 14.2-17.6 30.4-15 49.2z" fill="#ef8067"/><path d="m1174.1 563.7c.3 0 .7 0 1.2.1 16.7 3 31.4 9.7 42.6 22.9 6.5 7.6 11.2 16.3 14.2 25.9.2.8.5 1.5.6 2.3.2 1.2-.6 2.3-1.8 2.4-1.3 0-2.6-.1-3.8-.3-27.8-5.3-46.1-21.5-55.2-48.2-.3-.8-.4-1.5-.6-2.3-.1-1.8.8-2.8 2.8-2.8z" fill="#524e43"/><path d="m1177.1 568.4c-.2.3-.5.6-.5.8.1.6.2 1.3.4 1.9 8.7 22.4 24.8 36.3 48.3 41.6.3.1.6.1.9.1.9.1 1.5-.6 1.2-1.5-2-5.4-4.6-10.5-7.7-15.4-9.8-15.1-24.1-23.4-41.3-27.3-.3-.2-.8-.2-1.3-.2z" fill="#ef8067"/><path d="m1332.1 700.3c.3 2.2-.6 3.2-2.4 3.1-1 0-1.9-.2-2.8-.4-9.2-1.6-17.9-4.8-25.9-9.6-12.4-7.4-20.7-18.3-26.6-31.3-.9-1.9-1.6-3.8-2.3-5.8-.4-1.2-.8-2.4-1-3.7-.4-2 .5-2.9 2.7-2.8.8 0 1.6.1 2.4.3 23.1 4.4 40.7 16.3 51.2 37.7 1.4 2.9 2.6 5.8 3.7 8.8.4 1.3.7 2.8 1 3.7z" fill="#524e43"/><path d="m1327 697.5c-.2-.7-.5-1.6-.8-2.5-2.8-6.8-6.4-13.2-11.1-18.9-9.6-11.8-22.4-18.2-36.9-21.6-1.8-.4-2.3.3-1.7 2.1.1.3.2.6.3.9 8.8 22.2 24.8 35.9 48.1 41 .5.1.9.2 1.4.2s.7-.4.7-1.2z" fill="#ef8067"/><path d="m1178.9 673.4c-6.5.8-13.6.4-20.7-.7-1.3-.2-2.5-.4-3.7-.8-2.4-.7-2.9-2.1-1.5-4.3.2-.3.4-.5.6-.8 12.6-15.3 28.2-25.2 48.4-26.9 6.7-.5 13.4-.2 20 1 1.1.2 2.2.4 3.3.7 2.6.7 3 2 1.5 4.2-.2.3-.4.5-.6.8-10.4 12.7-25.9 24.7-47.3 26.8z" fill="#524e43"/><path d="m1181.1 669.2c2-.2 5.6-1 9.1-2.1 12.3-3.7 22.2-11 30.6-20.6.8-.9.4-1.8-.9-2-7.3-1.1-14.6-1.4-22-.3-15.7 2.3-28.3 10.4-38.8 22-.2.2-.4.5-.6.8-.5.7-.2 1.5.8 1.7 6.7 1.2 13.4 1.4 21.8.5z" fill="#ef8067"/><path d="m1304.1 628.8c-8.5.6-16.1.5-23.7-1-.9-.2-1.9-.4-2.8-.7-1.9-.6-2.3-2-1.2-3.8.3-.5.7-1.1 1.1-1.6 8.3-10 18.2-18 30.5-22.6 13.1-4.9 26.6-5.2 40.2-2.4.5.1.9.2 1.4.4 1.6.6 2 2 1.1 3.5-.2.4-.5.8-.8 1.2-10.5 12.8-23.3 22.3-39.9 25.7-2.2.6-4.4 1-5.9 1.3z" fill="#524e43"/><path d="m1300 625.1c19.9-2.1 33.1-10.3 44.2-22.6 1.4-1.5 1.2-2.1-.7-2.4-6.8-1.1-13.6-1.2-20.5-.4-16.6 2-29.5 10.4-40.4 22.5-1 1.1-.7 1.9 1 2.1 6.4 1 12.9 1.1 16.4.8z" fill="#ef8067"/><path d="m1258.6 633.7c.3 3.8-2.2 6.8-6 7.1-3.5.3-6.5-2.2-7-5.7-.5-3.6 2.2-7.1 5.8-7.4 3.6-.4 6.9 2.4 7.2 6z" fill="#524e43"/><path d="m1251.9 631.9c-1.3.1-2.3 1.3-2.2 2.6.1 1.4 1.2 2.4 2.5 2.4 1.5 0 2.6-1.3 2.4-2.9-.2-1.3-1.4-2.3-2.7-2.1z" fill="#ef8067"/><path d="m364.4 579.1c58.5-6.2 107.4 35.4 113.8 90.1 6.6 56.6-33.8 107.2-89.9 113.9-54.2 6.5-107.1-31-114-90.3-6.5-56.3 33.1-106.5 90.1-113.7z" fill="#524e43"/><path d="m462.3 633c-.3-.5-.4-1-.7-1.4-1.7-2.7-3.3-5.5-5.2-8-11-15.3-25.3-26.5-42.7-33.7-1.5-.6-3-1.1-4.5-1.6-.9-.3-1.6 0-1.9.9-.5 1.2-.8 2.4-1.2 3.6-3.1 9.8-6.1 19.5-9.2 29.3-5.2 16.5-10.3 32.9-15.4 49.4-.4 1.2-.8 2.4-1.1 3.7-.1.3.1.6.2.9.2.3.5.4.8.2.6-.3 1.2-.5 1.7-.8 25.5-13.3 50.9-26.6 76.4-39.9.7-.4 1.4-.7 2.1-1.2.4-.5.5-1 .7-1.4z" fill="#f9a66e"/><path d="m474.5 670.8c-1.2-10.5-3.8-19.7-7.5-28.6-.4-1-.9-2-1.4-3-.7-1.4-1.4-1.6-2.7-1-1.2.5-2.3 1.2-3.4 1.8-12.2 6.4-24.3 12.7-36.5 19.1-12.9 6.7-25.8 13.4-38.6 20.2-.6.3-1.6.6-1.5 1.5.1.4 1 .7 1.5 1 .4.2.9.3 1.4.4 27.1 8.5 54.2 17 81.4 25.5.8.2 1.5.4 2.3.7.9.3 1.6 0 1.9-.9s.6-1.8.8-2.8c2.7-11.5 3.5-23.1 2.3-33.9z" fill="#f9a66e"/><path d="m278.1 692.4c1.3 9.5 3.5 18.9 8 28.9 1.7 3.8 1.7 3.8 5.5 1.9 14.6-7.6 29.1-15.3 43.7-22.9 10.6-5.5 21.2-11.1 31.8-16.6.8-.4 1.7-1 2.4-1.5.1-.1 0-.7-.1-.7-1-.5-2-.9-3.1-1.3-27-8.5-53.9-16.9-80.9-25.3-.9-.3-1.8-.6-2.8-.8-.7-.2-1.3.1-1.5.8-.4 1.2-.8 2.4-1.1 3.7-2.4 11-3 22.1-1.9 33.8z" fill="#f9a66e"/><path d="m381.7 685.3c-.2.2-.5.6-.4.7.5 1.2 1 2.4 1.6 3.5 12.9 24.6 25.7 49.3 38.6 73.9.4.8.9 1.7 1.4 2.5.8 1.3 1.4 1.5 2.8.7 4.6-2.6 8.9-5.6 13-9 14-11.5 24.2-25.8 30.4-42.9.7-1.9.5-2.2-1.3-2.8-.8-.3-1.5-.5-2.3-.7-25.8-8.1-51.5-16.1-77.3-24.2-1.8-.6-3.7-1.2-5.5-1.7-.3-.1-.6 0-1 0z" fill="#f9a66e"/><path d="m364.8 583.1c-3.2.5-6.3.9-9.5 1.6-7.4 1.6-14.5 4-21.3 7.3-1.2.6-1.4 1.2-.9 2.3.5 1.2 1.1 2.3 1.7 3.4 12.7 24.4 25.5 48.7 38.2 73.1.6 1.1 1.2 2.2 1.9 3.3.1.2.5.5.8.5.2 0 .5-.4.6-.6 1.2-3.8 2.5-7.6 3.7-11.4 7.4-23.5 14.7-47 22.1-70.5.4-1.4.8-2.7 1.2-4.1.2-.9 0-1.6-1-1.9-1.1-.3-2.2-.6-3.2-.9-11.3-2.7-22.7-3.4-34.3-2.1z" fill="#f9a66e"/><path d="m328.1 595.2c-.9.5-1.7.9-2.5 1.4-19.3 11.7-33 28-41.3 49-1.8 4.4-2 4.1 2.6 5.5 27 8.5 54 16.9 81 25.4.9.3 1.8.6 2.8.7.6.1.9-.4.7-.9-.3-.9-.8-1.8-1.2-2.6-13.1-25.1-26.2-50.1-39.3-75.2-.4-.8-.9-1.7-1.4-2.5-.4-.4-.9-.5-1.4-.8z" fill="#f9a66e"/><path d="m371.2 686.2c-.5.3-1.2.6-1.9.9-25.5 13.3-51 26.6-76.4 40-.7.4-1.4.8-2 1.2-.4.3-.7.7-.4 1.2.4.9.9 1.7 1.4 2.5 11.9 19.6 28.6 33.3 49.9 41.5l1.8.6c.9.2 1.5-.1 1.8-1 .4-1.1.7-2.1 1.1-3.2 8.3-26.4 16.5-52.7 24.8-79.1.4-1.2.7-2.5 1-3.7 0-.5-.3-.7-1.1-.9z" fill="#f9a66e"/><path d="m388.4 779.1c7.7-.8 15.7-2.9 23.5-5.9 2.2-.9 4.4-1.9 6.6-2.9 1.3-.6 1.4-1.2.7-2.7-.3-.6-.5-1.2-.8-1.7-13.1-25.1-26.2-50.1-39.3-75.1-.4-.8-.9-1.7-1.4-2.5-.1-.2-.5-.4-.8-.3-.2 0-.6.3-.7.5-.4 1-.7 2.1-1.1 3.2-8.4 26.7-16.7 53.3-25.1 80-.3.9-.6 1.8-.8 2.8-.2.9.2 1.6 1.1 1.9 1.1.3 2.2.6 3.2.9 11.3 2.5 22.7 3.3 34.9 1.8z" fill="#f9a66e"/><path d="m337.1 640.3c2.9-.2 5.7.5 7.8 2.8 1.1 1.2 2.1 2.4 2.9 3.8 2.4 4.1 4.7 8.4 7 12.6.4.7.7 1.5.9 2.2.3 1.2-.6 2.3-1.8 2.2-.5 0-1-.1-1.4-.2-5.4-1.3-10.9-2.7-16.1-4.7-1-.4-2.1-.9-3-1.4-3.4-2.1-5-6-4.2-10 .5-3.6 3.9-6.7 7.9-7.3z" fill="#524e43"/><path d="m332.8 650.3c.2 1.9.9 3.2 2.8 4.2 1.4.7 2.9 1.3 4.4 1.8 3 .9 5.9 2.3 9.1 2.2 0-3.6-2.5-5.9-4.1-8.7-.7-1.4-1.7-2.7-2.8-3.9-1.7-1.9-4.3-2.2-6.5-1.1-2.1 1-3.2 3.1-2.9 5.5z" fill="#ffdbc2"/><path d="m333.7 743.3c-3.9.4-7.6-1.7-9.4-5.3-1.6-3.3-1.1-7.4 1.4-10.3.8-.9 1.8-1.8 2.9-2.5 4.3-3.3 8.9-6.1 13.6-8.8.5-.3 1.1-.6 1.7-.7.8-.2 2 .6 2.1 1.5 0 .5 0 .9-.1 1.4-.9 5.8-2.1 11.6-3.8 17.2-.5 1.7-1.2 3.3-2.5 4.6-1.5 1.5-3.8 2.7-5.9 2.9z" fill="#524e43"/><path d="m333.6 739.4c2.1-.3 3.7-1.6 4.4-3.7 1.5-4.1 2.4-8.3 3.1-12.5 0-.3-.1-.7-.3-.8s-.6-.1-.8 0c-3.8 2.1-7.4 4.5-10.7 7.3-.4.3-.7.7-1 1.1-1.3 1.9-1.6 3.8-.5 5.9 1.1 1.8 3.4 3 5.8 2.7z" fill="#ffdbc2"/><path d="m382 740.1c-6 .7-10.9-3.8-10.6-9.6 0-1.1.3-2.2.6-3.3 1.5-5.5 3.6-10.9 5.8-16.2.2-.6.6-1.1 1-1.6.6-.6 1.5-.6 2.2-.1.4.3.7.7.9 1.1 3 5.8 6 11.6 7.9 17.8 1 3.1.2 6-1.8 8.5-1.6 2.1-3.7 3.2-6 3.4z" fill="#524e43"/><path d="m386.3 730c-1.4-4.4-3.2-8.7-5.4-12.7-.3-.6-1.2-.5-1.5.2-1.6 3.7-2.9 7.4-3.8 11.3-.1.6-.3 1.2-.4 1.9-.1 2.3.9 4 2.9 5.1s4 1 5.9-.3c1.8-1.4 2.5-3.3 2.3-5.5z" fill="#ffdbc2"/><path d="m1506.1 245.2-106.6 1.2c-10.7.1-19.5-8.5-19.6-19.2-.1-10.7 8.5-19.5 19.2-19.6l106.6-1.2c10.7-.1 19.5 8.5 19.6 19.2.1 10.6-8.5 19.4-19.2 19.6z" style="fill:#ffe9e6;stroke:#fff;stroke-width:4;stroke-linecap:round;stroke-linejoin:round;stroke-miterlimit:10"/><path d="m1519.1 192.6-44.6.5c-10.7.1-19.5-8.5-19.6-19.2-.1-10.7 8.5-19.5 19.2-19.6l44.6-.5c10.7-.1 19.5 8.5 19.6 19.2.1 10.7-8.5 19.5-19.2 19.6z" style="fill:#ffe9e6;stroke:#fff;stroke-width:4;stroke-linecap:round;stroke-linejoin:round;stroke-miterlimit:10"/><path d="m1477.7 133-58.2.7c-9.6.1-17.5-7.7-17.6-17.3-.1-9.6 7.7-17.5 17.3-17.6l58.2-.7c9.6-.1 17.5 7.7 17.6 17.3.1 9.5-7.7 17.5-17.3 17.6z" style="fill:#ffe9e6;stroke:#fff;stroke-width:4;stroke-linecap:round;stroke-linejoin:round;stroke-miterlimit:10"/><path d="m1454.8 107.3-14 .2c-8.7.1-15.9-6.9-16-15.7-.1-8.7 6.9-15.9 15.7-16l14-.2c8.7-.1 15.9 6.9 16 15.7 0 8.7-7 15.9-15.7 16z" style="fill:#ffe9e6;stroke:#fff;stroke-width:4;stroke-linecap:round;stroke-linejoin:round;stroke-miterlimit:10"/><path d="m402.8 412.7-44.6-.3c-10.7-.1-19.3-8.9-19.2-19.5.1-10.7 8.9-19.3 19.5-19.2l44.6.3c10.7.1 19.3 8.9 19.2 19.5 0 10.6-8.8 19.3-19.5 19.2z" style="fill:#ffe9e6;stroke:#fff;stroke-width:4;stroke-linecap:round;stroke-linejoin:round;stroke-miterlimit:10"/><path d="m377.7 463.5-58.2-.5c-9.6-.1-17.4-8-17.3-17.6.1-9.6 8-17.4 17.6-17.3l58.2.5c9.6.1 17.4 8 17.3 17.6-.1 9.6-8 17.4-17.6 17.3z" style="fill:#ffe9e6;stroke:#fff;stroke-width:4;stroke-linecap:round;stroke-linejoin:round;stroke-miterlimit:10"/><path d="m361.1 359-14-.1c-8.7-.1-15.8-7.2-15.7-16 .1-8.7 7.2-15.8 16-15.7l14 .1c8.7.1 15.8 7.2 15.7 16-.1 8.7-7.3 15.8-16 15.7z" style="fill:#ffe9e6;stroke:#fff;stroke-width:4;stroke-linecap:round;stroke-linejoin:round;stroke-miterlimit:10"/><path d="m430.5 435.6-14-.1c-8.7-.1-15.8-7.2-15.7-16 .1-8.7 7.2-15.8 16-15.7l14 .1c8.7.1 15.8 7.2 15.7 16-.1 8.7-7.3 15.8-16 15.7z" style="fill:#ffe9e6;stroke:#fff;stroke-width:4;stroke-linecap:round;stroke-linejoin:round;stroke-miterlimit:10"/><path d="m1436.2 619.2c.4-3.5.7-7 1.1-10.5.4-4 2.4-6.9 5.9-8.7 5.4-2.8 10.8-5.6 16.3-8.2 6.2-2.9 13.1 1.1 13.9 7.9.4 3.3-.8 6-3.1 8.2-.7.7-1.5 1.1-2.3 1.7-1.6 1.1-1.6 1.1-.5 2.4.6.7 1.3 1.4 1.8 2.2 2.1 3.7 2.1 7.4-.4 10.8-2.4 3.5-5.9 4.7-10.1 4-.9-.2-1.8-.6-2.7-.9-.8-.2-1.2.2-1.2 1-.1 1.1 0 2.2-.2 3.3-1 5-5.4 8.3-10.5 7.8-5-.5-8.9-4.6-9-9.6 0-1.3.2-2.5.3-3.8.1-2.5.4-5.1.7-7.6z" fill="#524e43"/><path d="m1434.2 290.5c-1.9 3-3.7 6-5.6 8.9-2.1 3.4-5.2 5.1-9.2 5.2-6.1.1-12.1.2-18.2.1-6.8-.2-11.2-6.8-8.9-13.3 1.1-3.1 3.4-5 6.4-6 .9-.3 1.9-.3 2.8-.5 1.9-.2 1.9-.2 1.5-1.9-.2-.9-.5-1.9-.6-2.8-.3-4.2 1.4-7.5 5.2-9.5 3.7-2 7.4-1.5 10.8 1 .8.6 1.3 1.4 2 2 .6.5 1.1.3 1.5-.3.6-1 1-2 1.7-2.9 3.1-4.1 8.5-5 12.9-2.4 4.3 2.6 5.9 8 3.8 12.6-.5 1.1-1.3 2.2-2 3.3-1.3 2.2-2.7 4.4-4.1 6.5z" fill="#524e43"/><path d="m456.3 887.1c-3.5 0-7 .1-10.5.1-4 0-7.1-1.6-9.3-4.9-3.4-5.1-6.8-10.1-10-15.2-3.6-5.8-.4-13.1 6.3-14.7 3.2-.8 6 .1 8.5 2.1.7.6 1.3 1.4 1.9 2.1 1.3 1.5 1.2 1.5 2.4.3.7-.7 1.3-1.5 2-2 3.4-2.5 7.1-2.9 10.8-.8 3.7 2 5.3 5.4 5.1 9.6-.1.9-.4 1.9-.6 2.8-.1.8.3 1.1 1.1 1.1 1.1 0 2.2-.2 3.3-.1 5.1.4 8.9 4.4 9 9.5.1 5-3.5 9.3-8.5 10-1.3.2-2.6.1-3.8.1-2.6 0-5.1.1-7.7 0z" fill="#524e43"/><path d="m291.8 758.3c.3 3.5.5 7 .8 10.5.3 4-1.2 7.2-4.3 9.6-4.8 3.7-9.6 7.4-14.6 10.8-5.6 3.9-13.1 1.1-15.1-5.4-1-3.1-.3-6 1.6-8.6.6-.8 1.3-1.4 2-2 1.4-1.3 1.4-1.3.1-2.4-.7-.6-1.5-1.2-2.1-1.9-2.7-3.3-3.3-6.9-1.5-10.7s5.1-5.6 9.3-5.6c.9 0 1.9.3 2.8.4.8.1 1.1-.4 1-1.2-.1-1.1-.4-2.2-.3-3.3.1-5.1 3.9-9.1 9-9.5 5-.4 9.5 3 10.5 7.9.2 1.2.3 2.5.4 3.8.1 2.5.3 5 .4 7.6z" fill="#524e43"/><path d="m480.7 559.7c3.5-.5 7-1 10.4-1.5 3.9-.5 7.3.7 9.9 3.7 4 4.6 8 9.1 11.8 13.8 4.3 5.3 2 13-4.3 15.4-3.1 1.2-6 .7-8.7-1-.8-.5-1.5-1.2-2.2-1.9-1.4-1.3-1.4-1.3-2.4 0-.6.8-1.1 1.6-1.7 2.3-3.1 2.9-6.7 3.8-10.6 2.2-3.9-1.5-6-4.7-6.3-8.9-.1-.9.2-1.9.2-2.9 0-.8-.5-1.1-1.2-1-1.1.2-2.2.5-3.3.6-5.1.2-9.4-3.3-10.1-8.3-.8-4.9 2.3-9.7 7.1-11 1.2-.3 2.5-.4 3.8-.6 2.5-.2 5-.6 7.6-.9-.1 0 0 0 0 0z" fill="#524e43"/></svg>